<svg width="57" height="57" viewBox="0 0 57 57" fill="none" xmlns="http://www.w3.org/2000/svg">
<path fill-rule="evenodd" clip-rule="evenodd" d="M42.8839 28.8839C43.372 28.3957 43.372 27.6043 42.8839 27.1161L27.8839 12.1161C27.3957 11.628 26.6043 11.628 26.1161 12.1161C25.628 12.6043 25.628 13.3957 26.1161 13.8839L38.9822 26.75L12 26.75C11.3096 26.75 10.75 27.3096 10.75 28C10.75 28.6904 11.3096 29.25 12 29.25H38.9822L26.1161 42.1161C25.628 42.6043 25.628 43.3957 26.1161 43.8839C26.6043 44.372 27.3957 44.372 27.8839 43.8839L42.8839 28.8839Z" fill="#212121"/>
<path fill-rule="evenodd" clip-rule="evenodd" d="M28.5 56C43.6878 56 56 43.6878 56 28.5C56 13.3122 43.6878 1 28.5 1C13.3122 1 1 13.3122 1 28.5C1 43.6878 13.3122 56 28.5 56ZM28.5 57C44.2401 57 57 44.2401 57 28.5C57 12.7599 44.2401 0 28.5 0C12.7599 0 0 12.7599 0 28.5C0 44.2401 12.7599 57 28.5 57Z" fill="#212121"/>
</svg>
