<svg width="49" height="53" viewBox="0 0 49 53" fill="none" xmlns="http://www.w3.org/2000/svg">
<path fill-rule="evenodd" clip-rule="evenodd" d="M48.6873 2.20833C48.6009 2.76179 48.5311 3.30847 48.4048 3.85499C47.288 8.69466 45.1478 13.2944 42.6194 17.6694C39.8522 22.4583 36.4161 26.929 32.513 30.9502C27.0414 36.5859 20.7257 41.5156 13.8514 44.9367C10.8193 46.4461 7.65863 47.5424 4.50014 48.4849C4.39354 48.5249 4.27469 48.4699 4.23542 48.3633C4.19541 48.2567 4.25043 48.1372 4.35625 48.0979C7.32018 46.7707 10.1582 45.1227 13.0338 43.4295C19.4964 39.6239 25.7484 35.0655 31.128 29.5969C34.9648 25.6978 38.3991 21.4244 41.2866 16.8628C43.9402 12.6713 45.9753 8.19681 47.7377 3.65008C47.9393 3.1318 48.1726 2.63899 48.3801 2.12386C48.4031 2.03918 48.4908 1.9892 48.5761 2.01268C48.6606 2.03575 48.7104 2.12335 48.6873 2.20833Z" fill="#040606"/>
<path fill-rule="evenodd" clip-rule="evenodd" d="M4.35615 48.0978C7.01872 48.3893 10.5672 48.5221 11.5635 48.598L15.1385 48.8762C16.4687 49.0386 17.5451 49.3247 17.2703 50.0885C17.2636 51.035 15.4683 50.656 15.0159 50.6945L11.4534 50.5923C10.292 50.5517 4.49363 50.4027 2.12313 50.1506C0.883795 50.0196 0.247787 49.4038 0.179659 49.2595C0.0147294 48.9117 -0.0450705 48.2829 0.482404 47.626C1.11988 46.8333 3.33542 45.3562 3.59842 45.1392C5.08876 43.9729 6.49569 42.7233 7.90616 41.4776C10.0474 39.5868 12.1483 37.6823 14.1553 35.628C14.3198 35.435 14.6109 35.4119 14.8046 35.5765C14.9975 35.741 15.0206 36.0321 14.856 36.2258C13.7196 37.8068 12.5938 39.366 11.3334 40.8376C9.44009 43.0501 7.33029 45.0568 5.13276 46.9943C5.01862 47.0883 4.65041 47.6398 4.35615 48.0978Z" fill="#040606"/>
</svg>
