<svg width="57" height="57" viewBox="0 0 57 57" fill="none" xmlns="http://www.w3.org/2000/svg">
<path fill-rule="evenodd" clip-rule="evenodd" d="M11.1161 28.8839C10.628 28.3957 10.628 27.6043 11.1161 27.1161L26.1161 12.1161C26.6043 11.628 27.3957 11.628 27.8839 12.1161C28.372 12.6043 28.372 13.3957 27.8839 13.8839L15.0178 26.75L42 26.75C42.6904 26.75 43.25 27.3096 43.25 28C43.25 28.6904 42.6904 29.25 42 29.25H15.0178L27.8839 42.1161C28.372 42.6043 28.372 43.3957 27.8839 43.8839C27.3957 44.372 26.6043 44.372 26.1161 43.8839L11.1161 28.8839Z" fill="#212121"/>
<path fill-rule="evenodd" clip-rule="evenodd" d="M28.5 56C43.6878 56 56 43.6878 56 28.5C56 13.3122 43.6878 1 28.5 1C13.3122 1 1 13.3122 1 28.5C1 43.6878 13.3122 56 28.5 56ZM28.5 57C44.2401 57 57 44.2401 57 28.5C57 12.7599 44.2401 0 28.5 0C12.7599 0 0 12.7599 0 28.5C0 44.2401 12.7599 57 28.5 57Z" fill="#212121"/>
</svg>
