<svg width="47" height="47" viewBox="0 0 47 47" fill="none" xmlns="http://www.w3.org/2000/svg">
<path d="M23.5 13.16C21.4549 13.16 19.4558 13.7664 17.7554 14.9026C16.055 16.0388 14.7297 17.6537 13.9471 19.5431C13.1645 21.4324 12.9597 23.5115 13.3587 25.5172C13.7577 27.523 14.7424 29.3654 16.1885 30.8115C17.6346 32.2576 19.477 33.2423 21.4828 33.6413C23.4885 34.0403 25.5676 33.8355 27.4569 33.0529C29.3463 32.2703 30.9612 30.945 32.0974 29.2446C33.2336 27.5442 33.84 25.5451 33.84 23.5C33.8369 20.7586 32.7465 18.1304 30.8081 16.1919C28.8696 14.2535 26.2414 13.1631 23.5 13.16ZM23.5 31.96C21.8268 31.96 20.1911 31.4638 18.7999 30.5342C17.4086 29.6046 16.3243 28.2834 15.684 26.7375C15.0437 25.1916 14.8761 23.4906 15.2026 21.8495C15.529 20.2085 16.3347 18.701 17.5179 17.5179C18.701 16.3347 20.2085 15.529 21.8495 15.2026C23.4906 14.8761 25.1916 15.0437 26.7375 15.684C28.2834 16.3243 29.6046 17.4086 30.5342 18.7999C31.4638 20.1911 31.96 21.8268 31.96 23.5C31.96 25.7437 31.0687 27.8956 29.4821 29.4821C27.8956 31.0687 25.7437 31.96 23.5 31.96ZM34.78 0H12.22C8.9802 0.00373178 5.87416 1.29239 3.58328 3.58328C1.29239 5.87416 0.00373178 8.9802 0 12.22V34.78C0.00373178 38.0198 1.29239 41.1258 3.58328 43.4167C5.87416 45.7076 8.9802 46.9963 12.22 47H34.78C38.0198 46.9963 41.1258 45.7076 43.4167 43.4167C45.7076 41.1258 46.9963 38.0198 47 34.78V12.22C46.9963 8.9802 45.7076 5.87416 43.4167 3.58328C41.1258 1.29239 38.0198 0.00373178 34.78 0ZM45.12 34.78C45.1169 37.5214 44.0265 40.1496 42.0881 42.0881C40.1496 44.0265 37.5214 45.1169 34.78 45.12H12.22C9.47862 45.1169 6.8504 44.0265 4.91195 42.0881C2.9735 40.1496 1.88311 37.5214 1.88 34.78V12.22C1.88311 9.47862 2.9735 6.8504 4.91195 4.91195C6.8504 2.9735 9.47862 1.88311 12.22 1.88H34.78C37.5214 1.88311 40.1496 2.9735 42.0881 4.91195C44.0265 6.8504 45.1169 9.47862 45.12 12.22V34.78ZM37.6 11.28C37.6 11.6518 37.4897 12.0153 37.2832 12.3245C37.0766 12.6336 36.783 12.8746 36.4394 13.0169C36.0959 13.1592 35.7179 13.1964 35.3532 13.1239C34.9885 13.0513 34.6536 12.8723 34.3906 12.6094C34.1277 12.3464 33.9487 12.0115 33.8761 11.6468C33.8036 11.2821 33.8408 10.9041 33.9831 10.5606C34.1254 10.217 34.3664 9.92341 34.6755 9.71684C34.9847 9.51026 35.3482 9.4 35.72 9.4C36.2186 9.4 36.6968 9.59807 37.0494 9.95064C37.4019 10.3032 37.6 10.7814 37.6 11.28Z" fill="#212121"/>
</svg>
