<svg width="36" height="28" viewBox="0 0 36 28" fill="none" xmlns="http://www.w3.org/2000/svg">
<path d="M34.7135 0H26.1421C25.5498 0 24.793 0.329 24.3875 0.76125L23.2475 1.93375C23.1675 2.01625 23.1229 2.12782 23.1234 2.24392C23.1237 2.3014 23.1351 2.35827 23.1569 2.41127C23.1787 2.46427 23.2105 2.51237 23.2505 2.55281C23.2906 2.59326 23.338 2.62526 23.3901 2.647C23.4423 2.66874 23.4981 2.67978 23.5544 2.67949C23.6681 2.67892 23.777 2.63225 23.857 2.54975L25.0004 1.372C25.2447 1.11213 25.789 0.875 26.1421 0.875H34.7135C34.8272 0.875 34.9362 0.921094 35.0166 1.00314C35.097 1.08519 35.1421 1.19647 35.1421 1.3125V10.1054C35.1421 10.465 34.9098 11.0206 34.6501 11.2753L22.5807 23.5008C22.495 23.5809 22.3827 23.6248 22.2665 23.6235C22.1503 23.6222 22.0389 23.5758 21.955 23.4938L19.6853 21.1759C19.6044 21.0962 19.4962 21.0521 19.3838 21.0531C19.2714 21.0541 19.1639 21.1001 19.0845 21.1812C19.005 21.2623 18.9599 21.3721 18.959 21.4868C18.958 21.6015 19.0012 21.712 19.0793 21.7945L21.349 24.1124C21.5926 24.3569 21.9198 24.4951 22.2615 24.4979C22.6031 24.5007 22.9324 24.3678 23.1798 24.1273L35.2501 11.9009C35.677 11.4826 35.9993 10.71 35.9993 10.1054V1.3125C35.9993 0.588875 35.4224 0 34.7135 0Z" fill="#212121"/>
<path d="M33.4604 4.375C33.4604 3.40987 32.6916 2.625 31.7461 2.625C30.8007 2.625 30.0318 3.40987 30.0318 4.375C30.0318 5.34013 30.8007 6.125 31.7461 6.125C32.6916 6.125 33.4604 5.34013 33.4604 4.375ZM30.889 4.375C30.8888 4.20169 30.939 4.03223 31.0332 3.88806C31.1274 3.74389 31.2614 3.63149 31.4182 3.56509C31.5751 3.49869 31.7476 3.48127 31.9142 3.51504C32.0807 3.54881 32.2336 3.63224 32.3537 3.75479C32.4737 3.87733 32.5555 4.03348 32.5885 4.20347C32.6216 4.37345 32.6046 4.54963 32.5395 4.70971C32.4745 4.86979 32.3644 5.00658 32.2231 5.10275C32.0819 5.19893 31.9159 5.25017 31.7461 5.25C31.273 5.25 30.889 4.85712 30.889 4.375ZM14.1096 3.5C13.5173 3.5 12.7604 3.829 12.3541 4.26125L0.360126 16.6259C0.125822 16.8779 -0.00329504 17.2131 6.39315e-05 17.5606C0.00342291 17.9081 0.138995 18.2406 0.378126 18.4879L9.31641 27.6124C9.5607 27.8626 9.88813 28 10.2387 28C10.5781 28 10.8987 27.8696 11.1464 27.6272L23.2158 15.4017C23.6436 14.9835 23.9667 14.2109 23.9667 13.6054V4.8125C23.9667 4.08887 23.3898 3.5 22.681 3.5H14.1096ZM23.1421 4.8125V13.6054C23.1421 13.9659 22.8773 14.5206 22.6176 14.7752L10.5481 27.0007C10.4616 27.0787 10.3498 27.1212 10.2344 27.1199C10.119 27.1186 10.0081 27.0737 9.92327 26.9937L0.984126 17.8701C0.903962 17.7858 0.858206 17.6735 0.856137 17.5561C0.854068 17.4386 0.89584 17.3247 0.972984 17.2375L12.9678 4.872C13.2121 4.61212 13.7564 4.375 14.1096 4.375H22.681C22.9167 4.375 23.1421 4.571 23.1421 4.8125Z" fill="#212121"/>
<path d="M19.7136 6.125C18.7681 6.125 17.9993 6.90987 17.9993 7.875C17.9993 8.84013 18.7681 9.625 19.7136 9.625C20.659 9.625 21.4278 8.84013 21.4278 7.875C21.4278 6.90987 20.659 6.125 19.7136 6.125ZM19.7136 8.75C19.4929 8.73992 19.2845 8.64333 19.1318 8.48034C18.9791 8.31735 18.8939 8.10052 18.8939 7.875C18.8939 7.64948 18.9791 7.43265 19.1318 7.26966C19.2845 7.10667 19.4929 7.01008 19.7136 7C19.9343 7.01008 20.1426 7.10667 20.2953 7.26966C20.448 7.43265 20.5332 7.64948 20.5332 7.875C20.5332 8.10052 20.448 8.31735 20.2953 8.48034C20.1426 8.64333 19.9343 8.73992 19.7136 8.75Z" fill="#212121"/>
</svg>
