<svg width="1336" height="549" viewBox="0 0 1336 549" fill="none" xmlns="http://www.w3.org/2000/svg">
<path d="M166.28 447.839V490.134H185.025C189.89 490.134 193.139 489.214 194.775 487.372C196.956 484.953 198.172 480.691 198.423 474.589H200.751V511.834H198.423C197.836 506.626 197.249 503.286 196.662 501.813C195.907 499.971 194.67 498.525 192.951 497.473C191.231 496.421 188.59 495.895 185.025 495.895H166.28V531.167C166.28 535.901 166.448 538.794 166.783 539.847C167.119 540.846 167.706 541.661 168.545 542.293C169.383 542.871 170.977 543.161 173.325 543.161H187.793C192.615 543.161 196.117 542.74 198.297 541.898C200.478 541.057 202.575 539.399 204.588 536.927C207.188 533.665 209.85 528.747 212.576 522.171H215.092L207.733 549H142V546.08H145.019C147.032 546.08 148.94 545.475 150.743 544.265C152.085 543.424 152.987 542.161 153.448 540.478C153.951 538.794 154.203 535.349 154.203 530.141V460.622C154.203 453.836 153.658 449.654 152.568 448.076C151.058 445.972 148.542 444.92 145.019 444.92H142V442H207.733L208.676 465.436H206.223C205.342 459.807 204.357 455.941 203.267 453.836C202.218 451.732 200.646 450.128 198.549 449.023C196.872 448.234 193.915 447.839 189.68 447.839H166.28Z" fill="#F8F8F7"/>
<path d="M304.841 519.409L306.917 519.962L299.62 549H233.573V546.08H236.781C240.387 546.08 242.966 544.607 244.518 541.661C245.399 539.978 245.839 536.085 245.839 529.983V460.938C245.839 454.257 245.252 450.075 244.078 448.392C242.442 446.077 240.01 444.92 236.781 444.92H233.573V442H272.195V444.92C267.666 444.867 264.479 445.393 262.634 446.498C260.831 447.603 259.594 448.997 258.923 450.68C258.252 452.363 257.916 456.388 257.916 462.753V529.983C257.916 534.349 258.252 537.348 258.923 538.979C259.426 540.083 260.202 540.899 261.25 541.425C262.298 541.951 265.569 542.214 271.063 542.214H277.29C283.832 542.214 288.424 541.609 291.066 540.399C293.707 539.189 296.119 537.059 298.299 534.007C300.48 530.904 302.661 526.038 304.841 519.409Z" fill="#F8F8F7"/>
<path d="M396.477 519.409L398.553 519.962L391.256 549H325.209V546.08H328.417C332.023 546.08 334.602 544.607 336.154 541.661C337.034 539.978 337.475 536.085 337.475 529.983V460.938C337.475 454.257 336.888 450.075 335.714 448.392C334.078 446.077 331.646 444.92 328.417 444.92H325.209V442H363.831V444.92C359.302 444.867 356.115 445.393 354.27 446.498C352.466 447.603 351.229 448.997 350.558 450.68C349.887 452.363 349.552 456.388 349.552 462.753V529.983C349.552 534.349 349.887 537.348 350.558 538.979C351.062 540.083 351.837 540.899 352.886 541.425C353.934 541.951 357.205 542.214 362.699 542.214H368.926C375.468 542.214 380.06 541.609 382.701 540.399C385.343 539.189 387.755 537.059 389.935 534.007C392.116 530.904 394.296 526.038 396.477 519.409Z" fill="#F8F8F7"/>
<path d="M441.188 447.839V490.134H459.933C464.797 490.134 468.047 489.214 469.683 487.372C471.863 484.953 473.079 480.691 473.331 474.589H475.658V511.834H473.331C472.744 506.626 472.157 503.286 471.57 501.813C470.815 499.971 469.578 498.525 467.858 497.473C466.139 496.421 463.497 495.895 459.933 495.895H441.188V531.167C441.188 535.901 441.356 538.794 441.691 539.847C442.027 540.846 442.614 541.661 443.452 542.293C444.291 542.871 445.885 543.161 448.233 543.161H462.7C467.523 543.161 471.025 542.74 473.205 541.898C475.386 541.057 477.482 539.399 479.495 536.927C482.095 533.665 484.758 528.747 487.484 522.171H490L482.64 549H416.908V546.08H419.927C421.94 546.08 423.848 545.475 425.651 544.265C426.993 543.424 427.895 542.161 428.356 540.478C428.859 538.794 429.111 535.349 429.111 530.141V460.622C429.111 453.836 428.566 449.654 427.475 448.076C425.966 445.972 423.449 444.92 419.927 444.92H416.908V442H482.64L483.584 465.436H481.131C480.25 459.807 479.265 455.941 478.174 453.836C477.126 451.732 475.553 450.128 473.457 449.023C471.779 448.234 468.823 447.839 464.588 447.839H441.188Z" fill="#F8F8F7"/>
<path d="M356.693 390.901C351.343 396.967 344.501 400 336.169 400C325.858 400 317.752 395.903 311.851 387.708C305.95 379.473 303 368.185 303 353.844C303 338.338 306.356 326.387 313.067 317.991C318.903 310.68 326.328 307.024 335.342 307.024C347.403 307.024 356.222 311.925 361.799 321.727C364.879 327.23 366.533 332.754 366.76 338.297H351.78C350.808 334.039 349.559 330.826 348.036 328.656C345.312 324.8 341.275 322.872 335.926 322.872C330.479 322.872 326.182 325.603 323.037 331.067C319.892 336.49 318.32 344.182 318.32 354.145C318.32 364.107 319.973 371.579 323.281 376.56C326.62 381.501 330.851 383.972 335.974 383.972C341.227 383.972 345.231 381.843 347.987 377.585C349.511 375.295 350.775 371.86 351.78 367.281H366.614C365.317 376.962 362.01 384.835 356.693 390.901Z" fill="#F8F8F7"/>
<path d="M399.841 400C389.595 400 381.765 396.545 376.351 389.636C369.088 381.16 365.456 368.948 365.456 353C365.456 336.731 369.088 324.519 376.351 316.364C381.765 309.455 389.595 306 399.841 306C410.087 306 417.917 309.455 423.332 316.364C430.562 324.519 434.177 336.731 434.177 353C434.177 368.948 430.562 381.16 423.332 389.636C417.917 396.545 410.087 400 399.841 400ZM413.994 376.138C417.463 370.715 419.198 363.003 419.198 353C419.198 343.038 417.447 335.345 413.945 329.922C410.476 324.459 405.775 321.727 399.841 321.727C393.908 321.727 389.174 324.438 385.64 329.862C382.106 335.285 380.339 342.997 380.339 353C380.339 363.003 382.106 370.715 385.64 376.138C389.174 381.562 393.908 384.273 399.841 384.273C405.775 384.273 410.492 381.562 413.994 376.138Z" fill="#F8F8F7"/>
<path d="M461.714 384.695C465.248 384.695 468.118 384.213 470.322 383.249C474.505 381.401 476.596 377.966 476.596 372.945C476.596 370.012 475.559 367.743 473.484 366.136C471.408 364.569 468.15 363.183 463.708 361.978L456.121 359.869C448.664 357.78 443.508 355.511 440.655 353.06C435.824 348.963 433.409 342.556 433.409 333.838C433.409 325.885 435.743 319.276 440.412 314.014C445.081 308.752 451.938 306.121 460.984 306.121C468.539 306.121 474.975 308.611 480.292 313.592C485.642 318.533 488.447 325.724 488.706 335.164H474.31C474.051 329.821 472.17 326.025 468.669 323.776C466.334 322.289 463.432 321.546 459.963 321.546C456.105 321.546 453.025 322.51 450.723 324.438C448.421 326.367 447.27 329.058 447.27 332.513C447.27 335.686 448.404 338.056 450.674 339.623C452.133 340.668 455.246 341.893 460.012 343.299L472.365 346.974C477.78 348.581 481.865 350.73 484.621 353.422C488.901 357.6 491.041 363.645 491.041 371.559C491.041 379.674 488.528 386.422 483.502 391.805C478.509 397.148 471.441 399.819 462.298 399.819C452.96 399.819 445.616 397.188 440.266 391.926C434.916 386.623 432.241 379.352 432.241 370.113H446.54C446.994 374.17 447.886 377.203 449.215 379.212C451.647 382.867 455.813 384.695 461.714 384.695Z" fill="#F8F8F7"/>
<path d="M505.884 397.529H491.926V308.712H513.714L526.748 378.549L539.685 308.712H561.23V397.529H547.272V337.454C547.272 335.726 547.288 333.316 547.321 330.223C547.353 327.09 547.369 324.679 547.369 322.992L533.8 397.529H519.258L505.787 322.992C505.787 324.679 505.803 327.09 505.835 330.223C505.868 333.316 505.884 335.726 505.884 337.454V397.529Z" fill="#F8F8F7"/>
<path d="M596.889 400C586.643 400 578.813 396.545 573.398 389.636C566.136 381.16 562.504 368.948 562.504 353C562.504 336.731 566.136 324.519 573.398 316.364C578.813 309.455 586.643 306 596.889 306C607.135 306 614.965 309.455 620.379 316.364C627.61 324.519 631.225 336.731 631.225 353C631.225 368.948 627.61 381.16 620.379 389.636C614.965 396.545 607.135 400 596.889 400ZM611.042 376.138C614.511 370.715 616.245 363.003 616.245 353C616.245 343.038 614.495 335.345 610.993 329.922C607.524 324.459 602.822 321.727 596.889 321.727C590.955 321.727 586.222 324.438 582.688 329.862C579.153 335.285 577.386 342.997 577.386 353C577.386 363.003 579.153 370.715 582.688 376.138C586.222 381.562 590.955 384.273 596.889 384.273C602.822 384.273 607.54 381.562 611.042 376.138Z" fill="#F8F8F7"/>
<path d="M663.187 365.594H647.965V397.529H633.083V308.712H664.306C671.504 308.712 677.243 311.001 681.523 315.581C685.803 320.16 687.942 327.25 687.942 336.851C687.942 347.336 685.803 354.747 681.523 359.086C677.243 363.424 671.131 365.594 663.187 365.594ZM670.191 347.095C672.136 344.966 673.109 341.591 673.109 336.972C673.109 332.352 672.12 329.058 670.142 327.09C668.197 325.121 665.457 324.137 661.923 324.137H647.965V350.288H661.923C665.457 350.288 668.213 349.224 670.191 347.095Z" fill="#F8F8F7"/>
<path d="M720.926 400C710.681 400 702.851 396.545 697.436 389.636C690.173 381.16 686.542 368.948 686.542 353C686.542 336.731 690.173 324.519 697.436 316.364C702.851 309.455 710.681 306 720.926 306C731.172 306 739.002 309.455 744.417 316.364C751.647 324.519 755.262 336.731 755.262 353C755.262 368.948 751.647 381.16 744.417 389.636C739.002 396.545 731.172 400 720.926 400ZM735.079 376.138C738.548 370.715 740.283 363.003 740.283 353C740.283 343.038 738.532 335.345 735.03 329.922C731.561 324.459 726.86 321.727 720.926 321.727C714.993 321.727 710.259 324.438 706.725 329.862C703.191 335.285 701.424 342.997 701.424 353C701.424 363.003 703.191 370.715 706.725 376.138C710.259 381.562 714.993 384.273 720.926 384.273C726.86 384.273 731.577 381.562 735.079 376.138Z" fill="#F8F8F7"/>
<path d="M756.78 308.712H771.759V381.562H807.262V397.529H756.78V308.712Z" fill="#F8F8F7"/>
<path d="M806.543 308.712H821.425V397.529H806.543V308.712Z" fill="#F8F8F7"/>
<path d="M877.559 308.712V324.438H856.111V397.529H841.034V324.438H819.489V308.712H877.559Z" fill="#F8F8F7"/>
<path d="M910.98 379.272H884.572L879.611 397.529H863.951L889.533 308.712H906.457L931.845 397.529H915.601L910.98 379.272ZM906.798 363.967L897.849 329.018L888.609 363.967H906.798Z" fill="#F8F8F7"/>
<path d="M989 397.529H974.021L944.743 334.441V397.529H930.784V308.712H946.493L975.042 370.715V308.712H989V397.529Z" fill="#F8F8F7"/>
<path d="M808.535 166.635V120H825.238V166.635C825.238 174.699 823.94 180.978 821.343 185.474C816.504 193.709 807.272 197.827 793.646 197.827C780.02 197.827 770.77 193.709 765.896 185.474C763.299 180.978 762 174.699 762 166.635V120H778.703V166.635C778.703 171.851 779.344 175.66 780.625 178.062C782.617 182.317 786.957 184.444 793.646 184.444C800.299 184.444 804.621 182.317 806.614 178.062C807.894 175.66 808.535 171.851 808.535 166.635Z" fill="#E7E9E4" fill-opacity="0.3"/>
<path d="M910.676 195.871H889.544L865.262 162.723L857.418 170.495V195.871H841.248V120H857.418V151.244L887.783 120H909.022L876.789 151.244L910.676 195.871Z" fill="#E7E9E4" fill-opacity="0.3"/>
<path d="M953.369 166.12H936.399V195.871H920.336V120H958.919C964.433 120.103 968.667 120.755 971.62 121.956C974.608 123.157 977.134 124.924 979.198 127.258C980.906 129.179 982.257 131.307 983.254 133.64C984.25 135.974 984.748 138.633 984.748 141.619C984.748 145.222 983.805 148.773 981.919 152.274C980.034 155.739 976.921 158.193 972.581 159.634C976.209 161.041 978.771 163.049 980.265 165.657C981.795 168.23 982.56 172.177 982.56 177.495V182.591C982.56 186.057 982.702 188.408 982.987 189.643C983.414 191.599 984.41 193.04 985.975 193.967V195.871H967.884C967.386 194.19 967.031 192.834 966.817 191.805C966.39 189.677 966.159 187.498 966.123 185.268L966.017 178.216C965.945 173.378 965.02 170.152 963.242 168.539C961.498 166.926 958.207 166.12 953.369 166.12ZM963.348 152.325C966.621 150.884 968.258 148.036 968.258 143.781C968.258 139.182 966.675 136.094 963.508 134.515C961.73 133.623 959.061 133.177 955.504 133.177H936.399V153.56H955.023C958.723 153.56 961.498 153.149 963.348 152.325Z" fill="#E7E9E4" fill-opacity="0.3"/>
<path d="M1045 180.275H1016.02L1010.58 195.871H993.393L1021.46 120H1040.03L1067.89 195.871H1050.07L1045 180.275ZM1040.41 167.201L1030.59 137.346L1020.45 167.201H1040.41Z" fill="#E7E9E4" fill-opacity="0.3"/>
<path d="M1141.54 195.871H1125.1L1092.97 141.979V195.871H1077.66V120H1094.89L1126.22 172.966V120H1141.54V195.871Z" fill="#E7E9E4" fill-opacity="0.3"/>
<path d="M1155.62 120H1171.95V195.871H1155.62V120Z" fill="#E7E9E4" fill-opacity="0.3"/>
<path d="M1233.38 180.275H1204.4L1198.96 195.871H1181.77L1209.84 120H1228.42L1256.27 195.871H1238.45L1233.38 180.275ZM1228.79 167.201L1218.97 137.346L1208.83 167.201H1228.79Z" fill="#E7E9E4" fill-opacity="0.3"/>
<path d="M1329.92 195.871H1313.48L1281.35 141.979V195.871H1266.04V120H1283.27L1314.6 172.966V120H1329.92V195.871Z" fill="#E7E9E4" fill-opacity="0.3"/>
<path d="M914.892 227.499H875.455V244.948H909.983V258.125H875.455V289.936H859.125V214.167H914.892V227.499Z" fill="#E7E9E4" fill-opacity="0.3"/>
<path d="M966.017 274.339H937.039L931.596 289.936H914.412L942.482 214.064H961.054L988.91 289.936H971.086L966.017 274.339ZM961.427 261.265L951.608 231.411L941.468 261.265H961.427Z" fill="#E7E9E4" fill-opacity="0.3"/>
<path d="M1027.49 278.972C1031.37 278.972 1034.52 278.56 1036.94 277.737C1041.53 276.158 1043.82 273.224 1043.82 268.935C1043.82 266.43 1042.69 264.491 1040.41 263.118C1038.13 261.78 1034.56 260.596 1029.68 259.567L1021.36 257.765C1013.17 255.981 1007.52 254.042 1004.39 251.949C999.085 248.448 996.435 242.975 996.435 235.529C996.435 228.734 998.996 223.089 1004.12 218.594C1009.24 214.099 1016.77 211.851 1026.69 211.851C1034.98 211.851 1042.04 213.979 1047.88 218.234C1053.75 222.454 1056.83 228.597 1057.11 236.661H1041.32C1041.03 232.097 1038.97 228.854 1035.12 226.933C1032.56 225.663 1029.38 225.028 1025.57 225.028C1021.34 225.028 1017.96 225.852 1015.43 227.499C1012.91 229.146 1011.64 231.445 1011.64 234.396C1011.64 237.107 1012.89 239.132 1015.38 240.47C1016.98 241.362 1020.4 242.409 1025.63 243.61L1039.18 246.75C1045.12 248.122 1049.6 249.958 1052.63 252.257C1057.33 255.826 1059.67 260.991 1059.67 267.751C1059.67 274.682 1056.92 280.447 1051.4 285.046C1045.92 289.61 1038.17 291.892 1028.13 291.892C1017.89 291.892 1009.83 289.644 1003.96 285.149C998.089 280.619 995.154 274.408 995.154 266.515H1010.84C1011.34 269.981 1012.32 272.572 1013.78 274.288C1016.45 277.411 1021.02 278.972 1027.49 278.972Z" fill="#E7E9E4" fill-opacity="0.3"/>
<path d="M1118.75 289.936V256.066H1088.01V289.936H1071.73V214.064H1088.01V242.992H1118.75V214.064H1135.08V289.936H1118.75Z" fill="#E7E9E4" fill-opacity="0.3"/>
<path d="M1149.54 214.064H1165.87V289.936H1149.54V214.064Z" fill="#E7E9E4" fill-opacity="0.3"/>
<path d="M1216.03 292.046C1204.79 292.046 1196.2 289.095 1190.26 283.193C1182.29 275.952 1178.3 265.52 1178.3 251.897C1178.3 237.999 1182.29 227.567 1190.26 220.601C1196.2 214.699 1204.79 211.748 1216.03 211.748C1227.28 211.748 1235.87 214.699 1241.81 220.601C1249.74 227.567 1253.71 237.999 1253.71 251.897C1253.71 265.52 1249.74 275.952 1241.81 283.193C1235.87 289.095 1227.28 292.046 1216.03 292.046ZM1231.56 271.663C1235.37 267.03 1237.27 260.442 1237.27 251.897C1237.27 243.387 1235.35 236.815 1231.51 232.183C1227.7 227.516 1222.54 225.183 1216.03 225.183C1209.52 225.183 1204.33 227.499 1200.45 232.131C1196.57 236.764 1194.63 243.353 1194.63 251.897C1194.63 260.442 1196.57 267.03 1200.45 271.663C1204.33 276.295 1209.52 278.612 1216.03 278.612C1222.54 278.612 1227.72 276.295 1231.56 271.663Z" fill="#E7E9E4" fill-opacity="0.3"/>
<path d="M1329.92 289.936H1313.48L1281.35 236.043V289.936H1266.04V214.064H1283.27L1314.6 267.03V214.064H1329.92V289.936Z" fill="#E7E9E4" fill-opacity="0.3"/>
<path d="M1093.83 308.129H1110.53L1088.38 384H1072.69L1063.2 339.63L1060.42 324.96L1057.65 339.63L1048.15 384H1032.88L1010.58 308.129H1028.03L1038.43 351.572L1040.67 363.668L1042.97 351.829L1051.83 308.129H1069.17L1078.51 351.572L1080.91 363.668L1083.31 352.035L1093.83 308.129Z" fill="#E7E9E4" fill-opacity="0.3"/>
<path d="M1175.26 350.851H1137.05V370.36H1180.6V384H1120.99V308.129H1178.68V321.563H1137.05V337.674H1175.26V350.851Z" fill="#E7E9E4" fill-opacity="0.3"/>
<path d="M1248.16 350.851H1209.95V370.36H1253.5V384H1193.89V308.129H1251.58V321.563H1209.95V337.674H1248.16V350.851Z" fill="#E7E9E4" fill-opacity="0.3"/>
<path d="M1336 384H1314.87L1290.59 350.851L1282.74 358.624V384H1266.57V308.129H1282.74V339.373L1313.11 308.129H1334.35L1302.11 339.373L1336 384Z" fill="#E7E9E4" fill-opacity="0.3"/>
<path d="M318.141 80.9279H286.055L280.027 98.7632H261L292.082 12H312.646L343.492 98.7632H323.755L318.141 80.9279ZM313.06 65.9769L302.187 31.8366L290.959 65.9769H313.06Z" fill="#E7E9E4" fill-opacity="0.3"/>
<path d="M353.596 12H370.437V98.7632H353.596V12Z" fill="#E7E9E4" fill-opacity="0.3"/>
<path d="M389.347 41.5489C393.798 35.8981 401.441 33.0728 412.274 33.0728C419.326 33.0728 425.589 34.4658 431.065 37.252C436.541 40.0381 439.279 45.2965 439.279 53.0271V82.4583C439.279 84.4989 439.318 86.9711 439.397 89.875C439.515 92.0725 439.85 93.5637 440.402 94.3485C440.953 95.1334 441.78 95.7809 442.883 96.291V98.7632H424.565C424.053 97.4683 423.698 96.2518 423.501 95.1138C423.304 93.9758 423.147 92.6808 423.029 91.2288C420.704 93.7403 418.026 95.879 414.992 97.6448C411.368 99.7246 407.271 100.765 402.701 100.765C396.871 100.765 392.045 99.1164 388.224 95.8201C384.442 92.4846 382.551 87.7756 382.551 81.6931C382.551 73.8056 385.604 68.0959 391.71 64.5642C395.059 62.6413 399.983 61.2679 406.483 60.4438L412.215 59.7374C415.327 59.345 417.553 58.8545 418.892 58.2659C421.295 57.2456 422.497 55.6563 422.497 53.498C422.497 50.8688 421.571 49.0637 419.72 48.0827C417.907 47.0624 415.229 46.5522 411.683 46.5522C407.704 46.5522 404.888 47.5333 403.233 49.4954C402.051 50.9473 401.263 52.9094 400.869 55.3816H384.619C384.974 49.7701 386.55 45.1592 389.347 41.5489ZM401.874 86.6376C403.45 87.9325 405.38 88.58 407.665 88.58C411.289 88.58 414.618 87.5205 417.651 85.4015C420.724 83.2824 422.32 79.4171 422.438 73.8056V67.5661C421.374 68.2332 420.291 68.7826 419.188 69.2143C418.124 69.6067 416.647 69.9795 414.756 70.3327L410.974 71.039C407.429 71.6669 404.888 72.4321 403.351 73.3347C400.751 74.8651 399.451 77.2392 399.451 80.457C399.451 83.3216 400.259 85.3818 401.874 86.6376Z" fill="#E7E9E4" fill-opacity="0.3"/>
<path d="M484.602 47.0231C478.89 47.0231 474.97 49.4365 472.843 54.2632C471.74 56.8139 471.188 60.071 471.188 64.0344V98.7632H454.406V34.7209H470.656V44.08C472.823 40.7837 474.872 38.4096 476.802 36.9577C480.269 34.3677 484.661 33.0728 489.979 33.0728C496.637 33.0728 502.073 34.819 506.288 38.3115C510.543 41.7648 512.67 47.5137 512.67 55.5582V98.7632H495.416V59.7374C495.416 56.3627 494.963 53.7727 494.057 51.9676C492.402 48.6713 489.25 47.0231 484.602 47.0231Z" fill="#E7E9E4" fill-opacity="0.3"/>
<path d="M603.08 98.7632H563.607V12H605.917C616.592 12.157 624.156 15.2374 628.608 21.2414C631.286 24.9301 632.626 29.3448 632.626 34.4855C632.626 39.7831 631.286 44.0408 628.608 47.2586C627.111 49.0637 624.905 50.7119 621.989 52.203C626.441 53.812 629.79 56.3627 632.035 59.8552C634.32 63.3477 635.462 67.5858 635.462 72.5694C635.462 77.7101 634.162 82.321 631.562 86.4021C629.908 89.1098 627.839 91.3858 625.358 93.2302C622.561 95.3492 619.252 96.8011 615.43 97.586C611.648 98.3708 607.532 98.7632 603.08 98.7632ZM602.667 60.5615H580.98V83.6944H602.371C606.192 83.6944 609.167 83.1843 611.294 82.164C615.155 80.2804 617.085 76.6702 617.085 71.3333C617.085 66.8205 615.214 63.7205 611.471 62.0331C609.383 61.0913 606.448 60.6007 602.667 60.5615ZM611.708 44.0212C614.071 42.6085 615.253 40.0774 615.253 36.4279C615.253 32.386 613.677 29.7176 610.526 28.4226C607.807 27.5201 604.341 27.0688 600.126 27.0688H580.98V46.1991H602.371C606.192 46.1991 609.304 45.4731 611.708 44.0212Z" fill="#E7E9E4" fill-opacity="0.3"/>
<path d="M651.831 41.5489C656.282 35.8981 663.925 33.0728 674.758 33.0728C681.81 33.0728 688.073 34.4658 693.549 37.252C699.025 40.0381 701.763 45.2965 701.763 53.0271V82.4583C701.763 84.4989 701.802 86.9711 701.881 89.875C701.999 92.0725 702.334 93.5637 702.886 94.3485C703.437 95.1334 704.264 95.7809 705.367 96.291V98.7632H687.049C686.537 97.4683 686.182 96.2518 685.985 95.1138C685.788 93.9758 685.631 92.6808 685.513 91.2288C683.188 93.7403 680.51 95.879 677.476 97.6448C673.852 99.7246 669.755 100.765 665.185 100.765C659.355 100.765 654.529 99.1164 650.708 95.8201C646.926 92.4846 645.035 87.7756 645.035 81.6931C645.035 73.8056 648.088 68.0959 654.194 64.5642C657.543 62.6413 662.467 61.2679 668.967 60.4438L674.699 59.7374C677.811 59.345 680.037 58.8545 681.376 58.2659C683.779 57.2456 684.981 55.6563 684.981 53.498C684.981 50.8688 684.055 49.0637 682.204 48.0827C680.391 47.0624 677.713 46.5522 674.167 46.5522C670.188 46.5522 667.372 47.5333 665.717 49.4954C664.535 50.9473 663.747 52.9094 663.353 55.3816H647.103C647.458 49.7701 649.034 45.1592 651.831 41.5489ZM664.358 86.6376C665.934 87.9325 667.864 88.58 670.149 88.58C673.773 88.58 677.102 87.5205 680.135 85.4015C683.208 83.2824 684.804 79.4171 684.922 73.8056V67.5661C683.858 68.2332 682.775 68.7826 681.672 69.2143C680.608 69.6067 679.131 69.9795 677.24 70.3327L673.458 71.039C669.913 71.6669 667.372 72.4321 665.835 73.3347C663.235 74.8651 661.935 77.2392 661.935 80.457C661.935 83.3216 662.743 85.3818 664.358 86.6376Z" fill="#E7E9E4" fill-opacity="0.3"/>
<path d="M775.391 12.1177V98.7632H759.022V89.875C756.619 93.6814 753.881 96.448 750.809 98.1746C747.736 99.9012 743.915 100.765 739.345 100.765C731.821 100.765 725.478 97.743 720.318 91.6997C715.196 85.6173 712.636 77.8278 712.636 68.3314C712.636 57.3829 715.157 48.7694 720.199 42.4907C725.281 36.2121 732.057 33.0728 740.527 33.0728C744.427 33.0728 747.894 33.9361 750.927 35.6627C753.96 37.3501 756.422 39.7046 758.313 42.7262V12.1177H775.391ZM730.009 67.0952C730.009 73.0207 731.19 77.7493 733.554 81.2811C735.878 84.8521 739.424 86.6376 744.19 86.6376C748.957 86.6376 752.581 84.8717 755.063 81.34C757.545 77.8082 758.786 73.2366 758.786 67.625C758.786 59.7767 756.797 54.1651 752.818 50.7903C750.375 48.7498 747.539 47.7295 744.309 47.7295C739.384 47.7295 735.76 49.5935 733.436 53.3214C731.151 57.0101 730.009 61.6014 730.009 67.0952Z" fill="#E7E9E4" fill-opacity="0.3"/>
<path d="M844.469 42.7262C849.905 49.515 852.623 57.5399 852.623 66.8009C852.623 76.2189 849.905 84.2831 844.469 90.9934C839.032 97.6645 830.779 101 819.709 101C808.64 101 800.386 97.6645 794.95 90.9934C789.514 84.2831 786.795 76.2189 786.795 66.8009C786.795 57.5399 789.514 49.515 794.95 42.7262C800.386 35.9374 808.64 32.543 819.709 32.543C830.779 32.543 839.032 35.9374 844.469 42.7262ZM819.65 46.7288C814.726 46.7288 810.924 48.4751 808.246 51.9676C805.606 55.4209 804.286 60.3653 804.286 66.8009C804.286 73.2366 805.606 78.2006 808.246 81.6931C810.924 85.1856 814.726 86.9319 819.65 86.9319C824.575 86.9319 828.356 85.1856 830.996 81.6931C833.635 78.2006 834.955 73.2366 834.955 66.8009C834.955 60.3653 833.635 55.4209 830.996 51.9676C828.356 48.4751 824.575 46.7288 819.65 46.7288Z" fill="#E7E9E4" fill-opacity="0.3"/>
<path d="M919.869 79.9273C919.436 83.7337 917.447 87.599 913.901 91.5231C908.386 97.7626 900.665 100.882 890.737 100.882C882.543 100.882 875.314 98.2531 869.051 92.9947C862.787 87.7363 859.655 79.1817 859.655 67.3307C859.655 56.2253 862.472 47.7099 868.105 41.7844C873.778 35.8589 881.125 32.8962 890.146 32.8962C895.504 32.8962 900.33 33.8968 904.624 35.8981C908.918 37.8995 912.463 41.0584 915.26 45.375C917.781 49.1814 919.416 53.5961 920.165 58.619C920.598 61.5622 920.775 65.8003 920.697 71.3333H876.614C876.851 77.769 878.88 82.2817 882.701 84.8717C885.025 86.4806 887.822 87.2851 891.092 87.2851C894.558 87.2851 897.375 86.304 899.542 84.3419C900.724 83.2824 901.768 81.8109 902.674 79.9273H919.869ZM903.205 60.2672C902.93 55.8329 901.571 52.4777 899.128 50.2017C896.725 47.8865 893.731 46.7288 890.146 46.7288C886.246 46.7288 883.213 47.9453 881.046 50.3783C878.919 52.8113 877.579 56.1076 877.028 60.2672H903.205Z" fill="#E7E9E4" fill-opacity="0.3"/>
<path d="M925.778 34.6032H944.688L958.101 81.9286L971.811 34.6032H989.893L966.67 98.7632H948.883L925.778 34.6032Z" fill="#E7E9E4" fill-opacity="0.3"/>
<path d="M1097.79 12V27.3631H1071.73V98.7632H1053.42V27.3631H1027.24V12H1097.79Z" fill="#E7E9E4" fill-opacity="0.3"/>
<path d="M1153.28 79.9273C1152.85 83.7337 1150.86 87.599 1147.31 91.5231C1141.8 97.7626 1134.08 100.882 1124.15 100.882C1115.95 100.882 1108.73 98.2531 1102.46 92.9947C1096.2 87.7363 1093.07 79.1817 1093.07 67.3307C1093.07 56.2253 1095.88 47.7099 1101.52 41.7844C1107.19 35.8589 1114.54 32.8962 1123.56 32.8962C1128.91 32.8962 1133.74 33.8968 1138.03 35.8981C1142.33 37.8995 1145.87 41.0584 1148.67 45.375C1151.19 49.1814 1152.83 53.5961 1153.58 58.619C1154.01 61.5622 1154.19 65.8003 1154.11 71.3333H1110.03C1110.26 77.769 1112.29 82.2817 1116.11 84.8717C1118.44 86.4806 1121.23 87.2851 1124.5 87.2851C1127.97 87.2851 1130.79 86.304 1132.95 84.3419C1134.13 83.2824 1135.18 81.8109 1136.08 79.9273H1153.28ZM1136.62 60.2672C1136.34 55.8329 1134.98 52.4777 1132.54 50.2017C1130.14 47.8865 1127.14 46.7288 1123.56 46.7288C1119.66 46.7288 1116.62 47.9453 1114.46 50.3783C1112.33 52.8113 1110.99 56.1076 1110.44 60.2672H1136.62Z" fill="#E7E9E4" fill-opacity="0.3"/>
<path d="M1167.93 41.5489C1172.39 35.8981 1180.03 33.0728 1190.86 33.0728C1197.91 33.0728 1204.18 34.4658 1209.65 37.252C1215.13 40.0381 1217.87 45.2965 1217.87 53.0271V82.4583C1217.87 84.4989 1217.91 86.9711 1217.99 89.875C1218.1 92.0725 1218.44 93.5637 1218.99 94.3485C1219.54 95.1334 1220.37 95.7809 1221.47 96.291V98.7632H1203.15C1202.64 97.4683 1202.29 96.2518 1202.09 95.1138C1201.89 93.9758 1201.74 92.6808 1201.62 91.2288C1199.29 93.7403 1196.61 95.879 1193.58 97.6448C1189.96 99.7246 1185.86 100.765 1181.29 100.765C1175.46 100.765 1170.63 99.1164 1166.81 95.8201C1163.03 92.4846 1161.14 87.7756 1161.14 81.6931C1161.14 73.8056 1164.19 68.0959 1170.3 64.5642C1173.65 62.6413 1178.57 61.2679 1185.07 60.4438L1190.8 59.7374C1193.92 59.345 1196.14 58.8545 1197.48 58.2659C1199.88 57.2456 1201.09 55.6563 1201.09 53.498C1201.09 50.8688 1200.16 49.0637 1198.31 48.0827C1196.5 47.0624 1193.82 46.5522 1190.27 46.5522C1186.29 46.5522 1183.48 47.5333 1181.82 49.4954C1180.64 50.9473 1179.85 52.9094 1179.46 55.3816H1163.21C1163.56 49.7701 1165.14 45.1592 1167.93 41.5489ZM1180.46 86.6376C1182.04 87.9325 1183.97 88.58 1186.25 88.58C1189.88 88.58 1193.21 87.5205 1196.24 85.4015C1199.31 83.2824 1200.91 79.4171 1201.03 73.8056V67.5661C1199.96 68.2332 1198.88 68.7826 1197.78 69.2143C1196.71 69.6067 1195.24 69.9795 1193.34 70.3327L1189.56 71.039C1186.02 71.6669 1183.48 72.4321 1181.94 73.3347C1179.34 74.8651 1178.04 77.2392 1178.04 80.457C1178.04 83.3216 1178.85 85.3818 1180.46 86.6376Z" fill="#E7E9E4" fill-opacity="0.3"/>
<path d="M1269.04 52.2619C1267.62 49.1618 1264.84 47.6118 1260.71 47.6118C1255.9 47.6118 1252.67 49.1618 1251.02 52.2619C1250.11 54.0278 1249.66 56.657 1249.66 60.1495V98.7632H1232.58V34.7209H1248.95V44.08C1251.04 40.7445 1253.01 38.3704 1254.86 36.9577C1258.13 34.4462 1262.36 33.1905 1267.56 33.1905C1272.49 33.1905 1276.47 34.2696 1279.5 36.4279C1281.94 38.4292 1283.79 40.9996 1285.05 44.1389C1287.26 40.3717 1290 37.6052 1293.27 35.8393C1296.73 34.0734 1300.6 33.1905 1304.85 33.1905C1307.69 33.1905 1310.48 33.7399 1313.24 34.8386C1316 35.9374 1318.5 37.8602 1320.75 40.6071C1322.56 42.8439 1323.78 45.5908 1324.41 48.8479C1324.8 51.0062 1325 54.1651 1325 58.3247L1324.88 98.7632H1307.63V57.9127C1307.63 55.4797 1307.23 53.4784 1306.45 51.9087C1304.95 48.9264 1302.19 47.4352 1298.17 47.4352C1293.52 47.4352 1290.31 49.358 1288.54 53.2037C1287.63 55.2443 1287.18 57.6969 1287.18 60.5615V98.7632H1270.22V60.5615C1270.22 56.7551 1269.83 53.9885 1269.04 52.2619Z" fill="#E7E9E4" fill-opacity="0.3"/>
<path d="M369.045 212.464L322.796 137H386.301L418.054 197.806L450.841 137H512.621L467.063 212.464L515.727 292H452.222L418.054 226.308L382.85 292H319L369.045 212.464Z" fill="#E7E9E4" fill-opacity="0.3"/>
<path d="M538.646 212.464L492.398 137H555.903L587.655 197.806L620.443 137H682.222L636.664 212.464L685.328 292H621.823L587.655 226.308L552.451 292H488.601L538.646 212.464Z" fill="#E7E9E4" fill-opacity="0.3"/>
<path d="M675.459 137H737.584V255.897H818V291.729H675.459V137Z" fill="#E7E9E4" fill-opacity="0.3"/>
<path d="M-81.9254 148.26V103.75H-65.9829V148.26C-65.9829 155.957 -67.2223 161.951 -69.7011 166.241C-74.3192 174.102 -83.1309 178.032 -96.1362 178.032C-109.141 178.032 -117.97 174.102 -122.622 166.241C-125.101 161.951 -126.34 155.957 -126.34 148.26V103.75H-110.398V148.26C-110.398 153.239 -109.787 156.874 -108.564 159.167C-106.663 163.228 -102.52 165.259 -96.1362 165.259C-89.7863 165.259 -85.6606 163.228 -83.7591 159.167C-82.5366 156.874 -81.9254 153.239 -81.9254 148.26Z" fill="#E7E9E4" fill-opacity="0.12"/>
<path d="M15.5633 176.165H-4.60679L-27.782 144.527L-35.2694 151.945V176.165H-50.7025V103.75H-35.2694V133.571L-6.28763 103.75H13.9843L-16.7801 133.571L15.5633 176.165Z" fill="#E7E9E4" fill-opacity="0.12"/>
<path d="M56.3109 147.769H40.1137V176.165H24.7824V103.75H61.6081C66.8713 103.849 70.9121 104.471 73.7305 105.617C76.5829 106.763 78.9938 108.45 80.9632 110.677C82.5931 112.511 83.8835 114.542 84.8343 116.769C85.785 118.996 86.2604 121.535 86.2604 124.384C86.2604 127.823 85.3606 131.213 83.5609 134.554C81.7612 137.862 78.79 140.203 74.6473 141.579C78.1109 142.922 80.5558 144.838 81.9819 147.327C83.442 149.783 84.1721 153.55 84.1721 158.627V163.49C84.1721 166.798 84.3079 169.042 84.5796 170.221C84.9871 172.088 85.9378 173.463 87.4319 174.348V176.165H70.1651C69.6897 174.56 69.3502 173.267 69.1464 172.284C68.7389 170.254 68.5182 168.174 68.4843 166.045L68.3824 159.314C68.3145 154.696 67.4316 151.618 65.7338 150.078C64.0699 148.539 60.929 147.769 56.3109 147.769ZM65.8357 134.603C68.9597 133.227 70.5216 130.509 70.5216 126.448C70.5216 122.059 69.0106 119.111 65.9885 117.604C64.2907 116.753 61.7439 116.327 58.3483 116.327H40.1137V135.782H57.8899C61.4213 135.782 64.0699 135.389 65.8357 134.603Z" fill="#E7E9E4" fill-opacity="0.12"/>
<path d="M143.766 161.279H116.108L110.913 176.165H94.5118L121.303 103.75H139.029L165.616 176.165H148.604L143.766 161.279ZM139.385 148.801L130.013 120.306L120.336 148.801H139.385Z" fill="#E7E9E4" fill-opacity="0.12"/>
<path d="M235.906 176.165H220.218L189.556 124.728V176.165H174.937V103.75H191.389L221.288 154.303V103.75H235.906V176.165Z" fill="#E7E9E4" fill-opacity="0.12"/>
<path d="M249.353 103.75H264.939V176.165H249.353V103.75Z" fill="#E7E9E4" fill-opacity="0.12"/>
<path d="M323.564 161.279H295.907L290.712 176.165H274.311L301.102 103.75H318.828L345.415 176.165H328.403L323.564 161.279ZM319.184 148.801L309.812 120.306L300.135 148.801H319.184Z" fill="#E7E9E4" fill-opacity="0.12"/>
<path d="M415.705 176.165H400.017L369.355 124.728V176.165H354.736V103.75H371.188L401.087 154.303V103.75H415.705V176.165Z" fill="#E7E9E4" fill-opacity="0.12"/>
<path d="M19.5871 206.352H-18.0535V223.007H14.9011V235.583H-18.0535V265.945H-33.6395V193.628H19.5871V206.352Z" fill="#E7E9E4" fill-opacity="0.12"/>
<path d="M68.3824 251.059H40.7249L35.5296 265.945H19.1287L45.9203 193.53H63.6455L90.2333 265.945H73.2212L68.3824 251.059ZM64.002 238.58L54.6301 210.086L44.9525 238.58H64.002Z" fill="#E7E9E4" fill-opacity="0.12"/>
<path d="M127.059 255.48C130.76 255.48 133.765 255.087 136.074 254.301C140.455 252.795 142.645 249.994 142.645 245.9C142.645 243.509 141.558 241.659 139.385 240.349C137.212 239.071 133.799 237.942 129.147 236.959L121.202 235.239C113.392 233.536 107.992 231.686 105.004 229.688C99.9448 226.347 97.4151 221.123 97.4151 214.016C97.4151 207.531 99.8599 202.143 104.75 197.853C109.639 193.562 116.821 191.417 126.295 191.417C134.207 191.417 140.947 193.448 146.516 197.509C152.119 201.537 155.056 207.4 155.328 215.097H140.251C139.979 210.741 138.01 207.646 134.343 205.812C131.898 204.6 128.859 203.994 125.225 203.994C121.185 203.994 117.959 204.78 115.548 206.352C113.137 207.924 111.931 210.119 111.931 212.935C111.931 215.523 113.12 217.455 115.497 218.732C117.025 219.584 120.285 220.583 125.276 221.729L138.214 224.726C143.884 226.036 148.163 227.788 151.049 229.983C155.531 233.389 157.773 238.318 157.773 244.77C157.773 251.386 155.141 256.889 149.878 261.277C144.648 265.633 137.246 267.812 127.67 267.812C117.891 267.812 110.2 265.666 104.597 261.376C98.9941 257.052 96.1927 251.124 96.1927 243.591H111.167C111.643 246.899 112.577 249.372 113.969 251.01C116.516 253.99 120.879 255.48 127.059 255.48Z" fill="#E7E9E4" fill-opacity="0.12"/>
<path d="M214.157 265.945V233.618H184.819V265.945H169.284V193.53H184.819V221.14H214.157V193.53H229.743V265.945H214.157Z" fill="#E7E9E4" fill-opacity="0.12"/>
<path d="M243.546 193.53H259.132V265.945H243.546V193.53Z" fill="#E7E9E4" fill-opacity="0.12"/>
<path d="M307.011 267.959C296.28 267.959 288.08 265.142 282.409 259.509C274.803 252.598 271 242.641 271 229.639C271 216.374 274.803 206.418 282.409 199.769C288.08 194.135 296.28 191.319 307.011 191.319C317.741 191.319 325.941 194.135 331.612 199.769C339.184 206.418 342.97 216.374 342.97 229.639C342.97 242.641 339.184 252.598 331.612 259.509C325.941 265.142 317.741 267.959 307.011 267.959ZM321.833 248.504C325.466 244.083 327.283 237.794 327.283 229.639C327.283 221.516 325.449 215.244 321.782 210.823C318.148 206.368 313.225 204.141 307.011 204.141C300.797 204.141 295.839 206.352 292.138 210.774C288.437 215.195 286.586 221.484 286.586 229.639C286.586 237.794 288.437 244.083 292.138 248.504C295.839 252.926 300.797 255.136 307.011 255.136C313.225 255.136 318.165 252.926 321.833 248.504Z" fill="#E7E9E4" fill-opacity="0.12"/>
<path d="M415.705 265.945H400.017L369.355 214.507V265.945H354.736V193.53H371.188L401.087 244.083V193.53H415.705V265.945Z" fill="#E7E9E4" fill-opacity="0.12"/>
<path d="M190.371 283.309H206.313L185.175 355.724H170.201L161.134 313.375L158.486 299.374L155.837 313.375L146.771 355.724H132.203L110.913 283.309H127.568L137.501 324.773L139.64 336.318L141.83 325.019L150.285 283.309H166.839L175.752 324.773L178.044 336.318L180.337 325.215L190.371 283.309Z" fill="#E7E9E4" fill-opacity="0.12"/>
<path d="M268.097 324.085H231.628V342.705H273.19V355.724H216.296V283.309H271.357V296.131H231.628V311.508H268.097V324.085Z" fill="#E7E9E4" fill-opacity="0.12"/>
<path d="M337.673 324.085H301.204V342.705H342.767V355.724H285.873V283.309H340.933V296.131H301.204V311.508H337.673V324.085Z" fill="#E7E9E4" fill-opacity="0.12"/>
<path d="M421.512 355.724H401.341L378.166 324.085L370.679 331.504V355.724H355.246V283.309H370.679V313.13L399.661 283.309H419.933L389.168 313.13L421.512 355.724Z" fill="#E7E9E4" fill-opacity="0.12"/>
<path d="M-549.979 66.4581H-580.604L-586.357 83.481H-604.518L-574.851 0.670166H-555.224L-525.784 83.481H-544.621L-549.979 66.4581ZM-554.83 52.1881L-565.207 19.6032L-575.923 52.1881H-554.83Z" fill="#E7E9E4" fill-opacity="0.12"/>
<path d="M-516.139 0.670166H-500.066V83.481H-516.139V0.670166Z" fill="#E7E9E4" fill-opacity="0.12"/>
<path d="M-482.018 28.873C-477.769 23.4797 -470.475 20.783 -460.135 20.783C-453.404 20.783 -447.426 22.1126 -442.2 24.7718C-436.973 27.431 -434.36 32.4499 -434.36 39.8283V67.9188C-434.36 69.8664 -434.323 72.226 -434.247 74.9976C-434.135 77.095 -433.815 78.5183 -433.289 79.2674C-432.762 80.0165 -431.973 80.6345 -430.92 81.1214V83.481H-448.404C-448.892 82.245 -449.231 81.0839 -449.419 79.9977C-449.607 78.9116 -449.757 77.6756 -449.87 76.2898C-452.088 78.6868 -454.645 80.7281 -457.54 82.4135C-461 84.3986 -464.91 85.3911 -469.271 85.3911C-474.836 85.3911 -479.442 83.818 -483.089 80.6719C-486.699 77.4883 -488.504 72.9938 -488.504 67.1885C-488.504 59.6602 -485.59 54.2107 -479.762 50.8398C-476.566 49.0046 -471.866 47.6937 -465.662 46.9071L-460.191 46.233C-457.221 45.8584 -455.096 45.3902 -453.818 44.8284C-451.524 43.8546 -450.378 42.3377 -450.378 40.2778C-450.378 37.7683 -451.261 36.0455 -453.028 35.1091C-454.758 34.1353 -457.315 33.6484 -460.699 33.6484C-464.496 33.6484 -467.185 34.5848 -468.764 36.4575C-469.892 37.8433 -470.644 39.716 -471.02 42.0756H-486.53C-486.191 36.7196 -484.687 32.3188 -482.018 28.873ZM-470.061 71.9077C-468.557 73.1436 -466.715 73.7616 -464.534 73.7616C-461.075 73.7616 -457.898 72.7504 -455.002 70.7279C-452.07 68.7054 -450.547 65.0161 -450.434 59.6602V53.705C-451.449 54.3417 -452.483 54.8661 -453.536 55.2781C-454.551 55.6526 -455.961 56.0084 -457.766 56.3455L-461.376 57.0197C-464.76 57.619 -467.185 58.3493 -468.651 59.2108C-471.133 60.6715 -472.373 62.9374 -472.373 66.0087C-472.373 68.7428 -471.603 70.7091 -470.061 71.9077Z" fill="#E7E9E4" fill-opacity="0.12"/>
<path d="M-391.102 34.0979C-396.554 34.0979 -400.295 36.4013 -402.325 41.0081C-403.378 43.4426 -403.904 46.5513 -403.904 50.3342V83.481H-419.922V22.356H-404.412V31.2888C-402.344 28.1427 -400.389 25.8767 -398.546 24.4909C-395.238 22.0189 -391.045 20.783 -385.969 20.783C-379.615 20.783 -374.426 22.4497 -370.403 25.7831C-366.342 29.079 -364.312 34.566 -364.312 42.2441V83.481H-380.781V46.233C-380.781 43.0119 -381.213 40.5399 -382.078 38.8171C-383.657 35.6709 -386.665 34.0979 -391.102 34.0979Z" fill="#E7E9E4" fill-opacity="0.12"/>
<path d="M-278.021 83.481H-315.695V0.670166H-275.313C-265.124 0.819982 -257.905 3.76012 -253.656 9.49058C-251.099 13.0113 -249.821 17.2248 -249.821 22.1313C-249.821 27.1876 -251.099 31.2514 -253.656 34.3226C-255.085 36.0455 -257.19 37.6185 -259.973 39.0418C-255.724 40.5774 -252.528 43.0119 -250.385 46.3453C-248.204 49.6787 -247.114 53.7238 -247.114 58.4804C-247.114 63.3869 -248.354 67.7877 -250.836 71.6829C-252.415 74.2673 -254.389 76.4396 -256.758 78.1999C-259.428 80.2225 -262.586 81.6083 -266.233 82.3573C-269.843 83.1064 -273.772 83.481 -278.021 83.481ZM-278.415 47.0195H-299.114V69.0986H-278.697C-275.05 69.0986 -272.211 68.6117 -270.181 67.6379C-266.496 65.8401 -264.654 62.3944 -264.654 57.3006C-264.654 52.9934 -266.44 50.0345 -270.012 48.424C-272.005 47.5251 -274.806 47.0569 -278.415 47.0195ZM-269.786 31.2326C-267.53 29.8843 -266.402 27.4685 -266.402 23.9853C-266.402 20.1275 -267.906 17.5806 -270.914 16.3447C-273.509 15.4832 -276.817 15.0525 -280.841 15.0525H-299.114V33.3113H-278.697C-275.05 33.3113 -272.08 32.6184 -269.786 31.2326Z" fill="#E7E9E4" fill-opacity="0.12"/>
<path d="M-231.491 28.873C-227.242 23.4797 -219.948 20.783 -209.608 20.783C-202.878 20.783 -196.899 22.1126 -191.673 24.7718C-186.447 27.431 -183.833 32.4499 -183.833 39.8283V67.9188C-183.833 69.8664 -183.796 72.226 -183.721 74.9976C-183.608 77.095 -183.288 78.5183 -182.762 79.2674C-182.235 80.0165 -181.446 80.6345 -180.393 81.1214V83.481H-197.877C-198.366 82.245 -198.704 81.0839 -198.892 79.9977C-199.08 78.9116 -199.23 77.6756 -199.343 76.2898C-201.562 78.6868 -204.118 80.7281 -207.014 82.4135C-210.473 84.3986 -214.383 85.3911 -218.745 85.3911C-224.309 85.3911 -228.915 83.818 -232.563 80.6719C-236.172 77.4883 -237.977 72.9938 -237.977 67.1885C-237.977 59.6602 -235.063 54.2107 -229.235 50.8398C-226.039 49.0046 -221.339 47.6937 -215.135 46.9071L-209.664 46.233C-206.694 45.8584 -204.57 45.3902 -203.291 44.8284C-200.998 43.8546 -199.851 42.3377 -199.851 40.2778C-199.851 37.7683 -200.734 36.0455 -202.502 35.1091C-204.231 34.1353 -206.788 33.6484 -210.172 33.6484C-213.97 33.6484 -216.658 34.5848 -218.237 36.4575C-219.365 37.8433 -220.117 39.716 -220.493 42.0756H-236.003C-235.665 36.7196 -234.161 32.3188 -231.491 28.873ZM-219.534 71.9077C-218.03 73.1436 -216.188 73.7616 -214.007 73.7616C-210.548 73.7616 -207.371 72.7504 -204.476 70.7279C-201.543 68.7054 -200.02 65.0161 -199.907 59.6602V53.705C-200.922 54.3417 -201.956 54.8661 -203.009 55.2781C-204.024 55.6526 -205.434 56.0084 -207.239 56.3455L-210.849 57.0197C-214.233 57.619 -216.658 58.3493 -218.124 59.2108C-220.606 60.6715 -221.847 62.9374 -221.847 66.0087C-221.847 68.7428 -221.076 70.7091 -219.534 71.9077Z" fill="#E7E9E4" fill-opacity="0.12"/>
<path d="M-113.56 0.782528V83.481H-129.182V74.9976C-131.476 78.6307 -134.089 81.2712 -137.022 82.9191C-139.954 84.5671 -143.602 85.3911 -147.963 85.3911C-155.145 85.3911 -161.198 82.5072 -166.124 76.7392C-171.012 70.9339 -173.456 63.4992 -173.456 54.4354C-173.456 43.9857 -171.049 35.7646 -166.237 29.7719C-161.386 23.7793 -154.919 20.783 -146.835 20.783C-143.113 20.783 -139.804 21.607 -136.909 23.2549C-134.014 24.8654 -131.664 27.1127 -129.859 29.9966V0.782528H-113.56ZM-156.874 53.2556C-156.874 58.9111 -155.746 63.4243 -153.49 66.7952C-151.272 70.2035 -147.888 71.9077 -143.338 71.9077C-138.789 71.9077 -135.33 70.2222 -132.961 66.8514C-130.592 63.4805 -129.408 59.1171 -129.408 53.7612C-129.408 46.2704 -131.307 40.9145 -135.104 37.6934C-137.435 35.7458 -140.142 34.772 -143.226 34.772C-147.926 34.772 -151.385 36.5511 -153.603 40.1092C-155.784 43.6299 -156.874 48.012 -156.874 53.2556Z" fill="#E7E9E4" fill-opacity="0.12"/>
<path d="M-47.6284 29.9966C-42.4397 36.4762 -39.8453 44.1355 -39.8453 52.9747C-39.8453 61.9636 -42.4397 69.6604 -47.6284 76.0651C-52.8172 82.4322 -60.6943 85.6158 -71.2599 85.6158C-81.8254 85.6158 -89.7025 82.4322 -94.8912 76.0651C-100.08 69.6604 -102.674 61.9636 -102.674 52.9747C-102.674 44.1355 -100.08 36.4762 -94.8912 29.9966C-89.7025 23.5171 -81.8254 20.2773 -71.2599 20.2773C-60.6943 20.2773 -52.8172 23.5171 -47.6284 29.9966ZM-71.3162 33.817C-76.0162 33.817 -79.6446 35.4837 -82.2014 38.8171C-84.7206 42.113 -85.9801 46.8322 -85.9801 52.9747C-85.9801 59.1171 -84.7206 63.8551 -82.2014 67.1885C-79.6446 70.5219 -76.0162 72.1886 -71.3162 72.1886C-66.6163 72.1886 -63.0067 70.5219 -60.4875 67.1885C-57.9683 63.8551 -56.7088 59.1171 -56.7088 52.9747C-56.7088 46.8322 -57.9683 42.113 -60.4875 38.8171C-63.0067 35.4837 -66.6163 33.817 -71.3162 33.817Z" fill="#E7E9E4" fill-opacity="0.12"/>
<path d="M24.3374 65.503C23.9238 69.1361 22.025 72.8253 18.641 76.5707C13.3771 82.5259 6.00754 85.5035 -3.46758 85.5035C-11.2883 85.5035 -18.1878 82.9941 -24.1662 77.9752C-30.1445 72.9564 -33.1338 64.7914 -33.1338 53.4803C-33.1338 42.8808 -30.4454 34.7533 -25.0686 29.0977C-19.6543 23.4422 -12.6419 20.6144 -4.03155 20.6144C1.08201 20.6144 5.68794 21.5695 9.7863 23.4797C13.8847 25.3898 17.2687 28.4049 19.9382 32.5248C22.3446 36.1578 23.905 40.3714 24.6194 45.1655C25.033 47.9746 25.2022 52.0196 25.127 57.3006H-16.9471C-16.7215 63.4431 -14.7851 67.7503 -11.1379 70.2222C-8.91954 71.7579 -6.24996 72.5257 -3.12918 72.5257C0.179593 72.5257 2.86797 71.5893 4.93596 69.7166C6.06395 68.7054 7.06033 67.3008 7.92512 65.503H24.3374ZM8.4327 46.7386C8.1695 42.5063 6.87235 39.304 4.54116 37.1316C2.24758 34.9218 -0.609974 33.817 -4.03155 33.817C-7.75392 33.817 -10.6491 34.978 -12.7171 37.3002C-14.7475 39.6223 -16.0259 42.7685 -16.5523 46.7386H8.4327Z" fill="#E7E9E4" fill-opacity="0.12"/>
<path d="M29.9773 22.2437H48.0252L60.8279 67.4132L73.9126 22.2437H91.1709L69.0059 83.481H52.0296L29.9773 22.2437Z" fill="#E7E9E4" fill-opacity="0.12"/>
<path d="M194.156 0.670166V15.3334H169.284V83.481H151.8V15.3334H126.815V0.670166H194.156Z" fill="#E7E9E4" fill-opacity="0.12"/>
<path d="M247.116 65.503C246.702 69.1361 244.803 72.8253 241.419 76.5707C236.155 82.5259 228.786 85.5035 219.311 85.5035C211.49 85.5035 204.59 82.9941 198.612 77.9752C192.634 72.9564 189.644 64.7914 189.644 53.4803C189.644 42.8808 192.333 34.7533 197.71 29.0977C203.124 23.4422 210.136 20.6144 218.747 20.6144C223.86 20.6144 228.466 21.5695 232.565 23.4797C236.663 25.3898 240.047 28.4049 242.716 32.5248C245.123 36.1578 246.683 40.3714 247.398 45.1655C247.811 47.9746 247.98 52.0196 247.905 57.3006H205.831C206.057 63.4431 207.993 67.7503 211.64 70.2222C213.859 71.7579 216.528 72.5257 219.649 72.5257C222.958 72.5257 225.646 71.5893 227.714 69.7166C228.842 68.7054 229.839 67.3008 230.703 65.503H247.116ZM231.211 46.7386C230.948 42.5063 229.651 39.304 227.319 37.1316C225.026 34.9218 222.168 33.817 218.747 33.817C215.024 33.817 212.129 34.978 210.061 37.3002C208.031 39.6223 206.752 42.7685 206.226 46.7386H231.211Z" fill="#E7E9E4" fill-opacity="0.12"/>
<path d="M261.103 28.873C265.351 23.4797 272.646 20.783 282.986 20.783C289.716 20.783 295.694 22.1126 300.921 24.7718C306.147 27.431 308.76 32.4499 308.76 39.8283V67.9188C308.76 69.8664 308.798 72.226 308.873 74.9976C308.986 77.095 309.306 78.5183 309.832 79.2674C310.358 80.0165 311.148 80.6345 312.201 81.1214V83.481H294.717C294.228 82.245 293.89 81.0839 293.702 79.9977C293.514 78.9116 293.363 77.6756 293.25 76.2898C291.032 78.6868 288.475 80.7281 285.58 82.4135C282.121 84.3986 278.211 85.3911 273.849 85.3911C268.284 85.3911 263.678 83.818 260.031 80.6719C256.422 77.4883 254.617 72.9938 254.617 67.1885C254.617 59.6602 257.531 54.2107 263.359 50.8398C266.555 49.0046 271.255 47.6937 277.459 46.9071L282.929 46.233C285.9 45.8584 288.024 45.3902 289.302 44.8284C291.596 43.8546 292.743 42.3377 292.743 40.2778C292.743 37.7683 291.859 36.0455 290.092 35.1091C288.362 34.1353 285.806 33.6484 282.422 33.6484C278.624 33.6484 275.936 34.5848 274.357 36.4575C273.229 37.8433 272.477 39.716 272.101 42.0756H256.591C256.929 36.7196 258.433 32.3188 261.103 28.873ZM273.059 71.9077C274.563 73.1436 276.406 73.7616 278.587 73.7616C282.046 73.7616 285.223 72.7504 288.118 70.7279C291.051 68.7054 292.574 65.0161 292.686 59.6602V53.705C291.671 54.3417 290.637 54.8661 289.584 55.2781C288.569 55.6526 287.159 56.0084 285.355 56.3455L281.745 57.0197C278.361 57.619 275.936 58.3493 274.469 59.2108C271.988 60.6715 270.747 62.9374 270.747 66.0087C270.747 68.7428 271.518 70.7091 273.059 71.9077Z" fill="#E7E9E4" fill-opacity="0.12"/>
<path d="M357.602 39.098C356.249 36.1391 353.598 34.6597 349.65 34.6597C345.063 34.6597 341.98 36.1391 340.4 39.098C339.536 40.7834 339.103 43.2928 339.103 46.6262V83.481H322.804V22.356H338.427V31.2888C340.419 28.1052 342.299 25.8393 344.066 24.4909C347.187 22.0939 351.229 20.8953 356.192 20.8953C360.892 20.8953 364.69 21.9253 367.585 23.9853C369.916 25.8954 371.683 28.3487 372.887 31.345C374.992 27.7494 377.605 25.1089 380.726 23.4235C384.035 21.738 387.72 20.8953 391.781 20.8953C394.488 20.8953 397.157 21.4197 399.789 22.4684C402.421 23.5171 404.809 25.3524 406.952 27.9741C408.681 30.109 409.847 32.7308 410.449 35.8395C410.825 37.8994 411.013 40.9145 411.013 44.8846L410.9 83.481H394.431V44.4913C394.431 42.1692 394.055 40.259 393.303 38.7609C391.874 35.9144 389.242 34.4911 385.407 34.4911C380.971 34.4911 377.906 36.3264 376.214 39.9969C375.349 41.9445 374.917 44.2853 374.917 47.0195V83.481H358.73V47.0195C358.73 43.3864 358.354 40.7459 357.602 39.098Z" fill="#E7E9E4" fill-opacity="0.12"/>
</svg>
