<svg width="390" height="827" viewBox="0 0 390 827" fill="none" xmlns="http://www.w3.org/2000/svg">
<path d="M9.8647 742.708C6.19159 746.903 1.49446 749 -4.2267 749C-11.3058 749 -16.8711 746.167 -20.9227 740.5C-24.9742 734.806 -27 727 -27 717.083C-27 706.361 -24.696 698.097 -20.0879 692.292C-16.0808 687.236 -10.983 684.708 -4.79436 684.708C3.48684 684.708 9.54192 688.097 13.3709 694.875C15.4857 698.681 16.621 702.5 16.7768 706.333H6.49212C5.82428 703.389 4.96722 701.167 3.92094 699.667C2.05099 697 -0.720543 695.667 -4.39366 695.667C-8.13355 695.667 -11.0832 697.556 -13.2425 701.333C-15.4019 705.083 -16.4815 710.403 -16.4815 717.292C-16.4815 724.181 -15.3462 729.347 -13.0756 732.792C-10.7826 736.208 -7.87755 737.917 -4.36026 737.917C-0.753935 737.917 1.99533 736.444 3.88754 733.5C4.93383 731.917 5.80202 729.542 6.49212 726.375H16.6767C15.7862 733.069 13.5156 738.514 9.8647 742.708Z" fill="#F8F8F7"/>
<path d="M39.49 749C32.4555 749 27.0794 746.611 23.3617 741.833C18.3752 735.972 15.8819 727.528 15.8819 716.5C15.8819 705.25 18.3752 696.806 23.3617 691.167C27.0794 686.389 32.4555 684 39.49 684C46.5246 684 51.9007 686.389 55.6183 691.167C60.5826 696.806 63.0647 705.25 63.0647 716.5C63.0647 727.528 60.5826 735.972 55.6183 741.833C51.9007 746.611 46.5246 749 39.49 749ZM49.2071 732.5C51.5891 728.75 52.78 723.417 52.78 716.5C52.78 709.611 51.5779 704.292 49.1737 700.542C46.7917 696.764 43.5639 694.875 39.49 694.875C35.4162 694.875 32.1661 696.75 29.7396 700.5C27.3131 704.25 26.0999 709.583 26.0999 716.5C26.0999 723.417 27.3131 728.75 29.7396 732.5C32.1661 736.25 35.4162 738.125 39.49 738.125C43.5639 738.125 46.8029 736.25 49.2071 732.5Z" fill="#F8F8F7"/>
<path d="M81.9713 738.417C84.3977 738.417 86.3679 738.083 87.8816 737.417C90.7533 736.139 92.1892 733.764 92.1892 730.292C92.1892 728.264 91.4768 726.694 90.0521 725.583C88.6274 724.5 86.3901 723.542 83.3403 722.708L78.1312 721.25C73.0111 719.806 69.4715 718.236 67.5126 716.542C64.1956 713.708 62.5371 709.278 62.5371 703.25C62.5371 697.75 64.14 693.181 67.3456 689.542C70.5512 685.903 75.2595 684.083 81.4704 684.083C86.6573 684.083 91.0761 685.806 94.727 689.25C98.4001 692.667 100.326 697.639 100.504 704.167H90.6198C90.4417 700.472 89.1505 697.847 86.7463 696.292C85.1435 695.264 83.1511 694.75 80.7691 694.75C78.1201 694.75 76.0052 695.417 74.4247 696.75C72.8441 698.083 72.0539 699.944 72.0539 702.333C72.0539 704.528 72.833 706.167 74.3913 707.25C75.393 707.972 77.5301 708.819 80.8025 709.792L89.2841 712.333C93.0017 713.444 95.8067 714.931 97.6989 716.792C100.637 719.681 102.107 723.861 102.107 729.333C102.107 734.944 100.381 739.611 96.9309 743.333C93.5026 747.028 88.6497 748.875 82.372 748.875C75.9607 748.875 70.9185 747.056 67.2454 743.417C63.5723 739.75 61.7357 734.722 61.7357 728.333H71.553C71.8646 731.139 72.4768 733.236 73.3895 734.625C75.0591 737.153 77.9197 738.417 81.9713 738.417Z" fill="#F8F8F7"/>
<path d="M112.298 747.292H102.714V685.875H117.674L126.623 734.167L135.505 685.875H150.298V747.292H140.714V705.75C140.714 704.556 140.725 702.889 140.748 700.75C140.77 698.583 140.781 696.917 140.781 695.75L131.465 747.292H121.481L112.231 695.75C112.231 696.917 112.242 698.583 112.264 700.75C112.287 702.889 112.298 704.556 112.298 705.75V747.292Z" fill="#F8F8F7"/>
<path d="M174.781 749C167.746 749 162.37 746.611 158.653 741.833C153.666 735.972 151.173 727.528 151.173 716.5C151.173 705.25 153.666 696.806 158.653 691.167C162.37 686.389 167.746 684 174.781 684C181.815 684 187.191 686.389 190.909 691.167C195.873 696.806 198.356 705.25 198.356 716.5C198.356 727.528 195.873 735.972 190.909 741.833C187.191 746.611 181.815 749 174.781 749ZM184.498 732.5C186.88 728.75 188.071 723.417 188.071 716.5C188.071 709.611 186.869 704.292 184.464 700.542C182.083 696.764 178.855 694.875 174.781 694.875C170.707 694.875 167.457 696.75 165.03 700.5C162.604 704.25 161.391 709.583 161.391 716.5C161.391 723.417 162.604 728.75 165.03 732.5C167.457 736.25 170.707 738.125 174.781 738.125C178.855 738.125 182.094 736.25 184.498 732.5Z" fill="#F8F8F7"/>
<path d="M220.301 725.208H209.849V747.292H199.631V685.875H221.069C226.011 685.875 229.951 687.458 232.889 690.625C235.828 693.792 237.297 698.694 237.297 705.333C237.297 712.583 235.828 717.708 232.889 720.708C229.951 723.708 225.755 725.208 220.301 725.208ZM225.109 712.417C226.445 710.944 227.113 708.611 227.113 705.417C227.113 702.222 226.434 699.944 225.076 698.583C223.74 697.222 221.859 696.542 219.433 696.542H209.849V714.625H219.433C221.859 714.625 223.751 713.889 225.109 712.417Z" fill="#F8F8F7"/>
<path d="M259.944 749C252.909 749 247.533 746.611 243.815 741.833C238.829 735.972 236.336 727.528 236.336 716.5C236.336 705.25 238.829 696.806 243.815 691.167C247.533 686.389 252.909 684 259.944 684C266.978 684 272.354 686.389 276.072 691.167C281.036 696.806 283.518 705.25 283.518 716.5C283.518 727.528 281.036 735.972 276.072 741.833C272.354 746.611 266.978 749 259.944 749ZM269.661 732.5C272.043 728.75 273.234 723.417 273.234 716.5C273.234 709.611 272.031 704.292 269.627 700.542C267.245 696.764 264.017 694.875 259.944 694.875C255.87 694.875 252.62 696.75 250.193 700.5C247.767 704.25 246.553 709.583 246.553 716.5C246.553 723.417 247.767 728.75 250.193 732.5C252.62 736.25 255.87 738.125 259.944 738.125C264.017 738.125 267.256 736.25 269.661 732.5Z" fill="#F8F8F7"/>
<path d="M284.56 685.875H294.845V736.25H319.221V747.292H284.56V685.875Z" fill="#F8F8F7"/>
<path d="M318.727 685.875H328.945V747.292H318.727V685.875Z" fill="#F8F8F7"/>
<path d="M367.486 685.875V696.75H352.76V747.292H342.408V696.75H327.616V685.875H367.486Z" fill="#F8F8F7"/>
<path d="M390.433 734.667H372.301L368.895 747.292H358.143L375.707 685.875H387.327L404.758 747.292H393.605L390.433 734.667ZM387.561 724.083L381.417 699.917L375.072 724.083H387.561Z" fill="#F8F8F7"/>
<path d="M444 747.292H433.715L413.613 703.667V747.292H404.03V685.875H414.815L434.417 728.75V685.875H444V747.292Z" fill="#F8F8F7"/>
<path d="M-5.13882 763.547V789.24H6.33432C9.31169 789.24 11.3009 788.681 12.3019 787.563C13.6366 786.093 14.3809 783.504 14.5349 779.797H15.9594V802.423H14.5349C14.1756 799.259 13.8162 797.23 13.4569 796.335C12.9949 795.216 12.2377 794.338 11.1854 793.698C10.133 793.059 8.51601 792.74 6.33432 792.74H-5.13882V814.167C-5.13882 817.043 -5.03615 818.8 -4.83081 819.44C-4.62548 820.047 -4.26614 820.542 -3.7528 820.926C-3.23946 821.277 -2.26412 821.453 -0.826765 821.453H8.02834C10.98 821.453 13.1232 821.197 14.4579 820.686C15.7926 820.175 17.076 819.168 18.308 817.666C19.8993 815.685 21.5292 812.697 23.1975 808.702H24.7375L20.233 825H-20V823.226H-18.152C-16.92 823.226 -15.7521 822.859 -14.6484 822.124C-13.8271 821.613 -13.2753 820.846 -12.9929 819.823C-12.6849 818.8 -12.5309 816.707 -12.5309 813.544V771.313C-12.5309 767.19 -12.8646 764.65 -13.5319 763.691C-14.4559 762.413 -15.996 761.774 -18.152 761.774H-20V760H20.233L20.8105 774.237H19.309C18.77 770.817 18.1668 768.469 17.4995 767.19C16.8578 765.912 15.8953 764.937 14.6119 764.266C13.5852 763.787 11.7757 763.547 9.18336 763.547H-5.13882Z" fill="#F8F8F7"/>
<path d="M79.67 807.024L80.9405 807.36L76.4745 825H36.049V823.226H38.0125C40.2199 823.226 41.7984 822.332 42.7481 820.542C43.2871 819.519 43.5566 817.155 43.5566 813.448V771.504C43.5566 767.446 43.1972 764.905 42.4786 763.883C41.4776 762.477 39.9889 761.774 38.0125 761.774H36.049V760H59.6883V761.774C56.9162 761.742 54.9655 762.061 53.8362 762.732C52.7325 763.403 51.9753 764.25 51.5647 765.273C51.154 766.295 50.9487 768.74 50.9487 772.607V813.448C50.9487 816.1 51.154 817.922 51.5647 818.912C51.8727 819.583 52.3475 820.079 52.9892 820.398C53.6309 820.718 55.6329 820.878 58.9953 820.878H62.8068C66.8109 820.878 69.6214 820.51 71.2384 819.775C72.8554 819.04 74.3313 817.746 75.666 815.892C77.0006 814.007 78.3353 811.051 79.67 807.024Z" fill="#F8F8F7"/>
<path d="M135.757 807.024L137.028 807.36L132.562 825H92.1365V823.226H94.1C96.3074 823.226 97.8859 822.332 98.8356 820.542C99.3746 819.519 99.6441 817.155 99.6441 813.448V771.504C99.6441 767.446 99.2847 764.905 98.566 763.883C97.565 762.477 96.0764 761.774 94.1 761.774H92.1365V760H115.776V761.774C113.004 761.742 111.053 762.061 109.924 762.732C108.82 763.403 108.063 764.25 107.652 765.273C107.241 766.295 107.036 768.74 107.036 772.607V813.448C107.036 816.1 107.241 817.922 107.652 818.912C107.96 819.583 108.435 820.079 109.077 820.398C109.718 820.718 111.72 820.878 115.083 820.878H118.894C122.898 820.878 125.709 820.51 127.326 819.775C128.943 819.04 130.419 817.746 131.753 815.892C133.088 814.007 134.423 811.051 135.757 807.024Z" fill="#F8F8F7"/>
<path d="M163.124 763.547V789.24H174.597C177.574 789.24 179.563 788.681 180.564 787.563C181.899 786.093 182.643 783.504 182.797 779.797H184.222V802.423H182.797C182.438 799.259 182.079 797.23 181.719 796.335C181.257 795.216 180.5 794.338 179.448 793.698C178.395 793.059 176.778 792.74 174.597 792.74H163.124V814.167C163.124 817.043 163.226 818.8 163.432 819.44C163.637 820.047 163.996 820.542 164.51 820.926C165.023 821.277 165.998 821.453 167.436 821.453H176.291C179.243 821.453 181.386 821.197 182.72 820.686C184.055 820.175 185.338 819.168 186.57 817.666C188.162 815.685 189.792 812.697 191.46 808.702H193L188.495 825H148.262V823.226H150.11C151.342 823.226 152.51 822.859 153.614 822.124C154.435 821.613 154.987 820.846 155.27 819.823C155.578 818.8 155.732 816.707 155.732 813.544V771.313C155.732 767.19 155.398 764.65 154.731 763.691C153.807 762.413 152.267 761.774 150.11 761.774H148.262V760H188.495L189.073 774.237H187.571C187.032 770.817 186.429 768.469 185.762 767.19C185.12 765.912 184.158 764.937 182.874 764.266C181.848 763.787 180.038 763.547 177.446 763.547H163.124Z" fill="#F8F8F7"/>
<path d="M-86.8829 70.0172H-109.41L-113.641 82.4418H-127L-105.178 22H-90.7411L-69.0853 82.4418H-82.9417L-86.8829 70.0172ZM-90.4507 59.6019L-98.0841 35.8188L-105.967 59.6019H-90.4507Z" fill="#F8F8F7"/>
<path d="M-61.9912 22H-50.1676V82.4418H-61.9912V22Z" fill="#F8F8F7"/>
<path d="M-36.892 42.5847C-33.7667 38.6481 -28.4012 36.6799 -20.7954 36.6799C-15.8447 36.6799 -11.4472 37.6504 -7.6028 39.5913C-3.75841 41.5322 -1.83622 45.1953 -1.83622 50.5807V71.0833C-1.83622 72.5049 -1.80856 74.2271 -1.75324 76.25C-1.67027 77.7809 -1.43519 78.8197 -1.04798 79.3664C-0.660782 79.9131 -0.0799713 80.3642 0.694443 80.7196V82.4418H-12.1663C-12.5258 81.5397 -12.7747 80.6922 -12.913 79.8995C-13.0513 79.1067 -13.1619 78.2046 -13.2449 77.1931C-14.8767 78.9427 -16.7574 80.4325 -18.887 81.6627C-21.4315 83.1116 -24.3079 83.836 -27.5162 83.836C-31.6095 83.836 -34.9975 82.6878 -37.6803 80.3915C-40.3354 78.0679 -41.6629 74.7875 -41.6629 70.5503C-41.6629 65.0556 -39.5195 61.078 -35.2326 58.6177C-32.8817 57.2782 -29.4245 56.3214 -24.861 55.7474L-20.8369 55.2553C-18.652 54.9819 -17.0893 54.6402 -16.1489 54.2302C-14.4618 53.5194 -13.6183 52.4123 -13.6183 50.9087C-13.6183 49.0772 -14.2682 47.8197 -15.5681 47.1362C-16.8404 46.4255 -18.7211 46.0701 -21.2103 46.0701C-24.0037 46.0701 -25.9812 46.7535 -27.1428 48.1204C-27.9725 49.1318 -28.5257 50.4987 -28.8022 52.2209H-40.2109C-39.962 48.3117 -38.8557 45.0996 -36.892 42.5847ZM-28.097 73.9947C-26.9907 74.8968 -25.6355 75.3479 -24.0313 75.3479C-21.4868 75.3479 -19.1498 74.6098 -17.0202 73.1336C-14.8629 71.6574 -13.7427 68.9647 -13.6598 65.0556V60.709C-14.4065 61.1737 -15.1671 61.5564 -15.9415 61.8571C-16.6883 62.1305 -17.7254 62.3902 -19.053 62.6362L-21.7081 63.1283C-24.1973 63.5657 -25.9812 64.0988 -27.0598 64.7275C-28.8852 65.7937 -29.7979 67.4475 -29.7979 69.6892C-29.7979 71.6847 -29.2309 73.1199 -28.097 73.9947Z" fill="#F8F8F7"/>
<path d="M29.9837 46.3981C25.9733 46.3981 23.2214 48.0794 21.7279 51.4418C20.9535 53.2187 20.5663 55.4877 20.5663 58.2487V82.4418H8.78424V37.828H20.1929V44.3479C21.7141 42.0516 23.1523 40.3977 24.5075 39.3862C26.9414 37.582 30.0252 36.6799 33.7589 36.6799C38.433 36.6799 42.2498 37.8964 45.2091 40.3294C48.1961 42.735 49.6896 46.7399 49.6896 52.3439V82.4418H37.5756V55.2553C37.5756 52.9043 37.2576 51.1001 36.6215 49.8426C35.4598 47.5463 33.2473 46.3981 29.9837 46.3981Z" fill="#F8F8F7"/>
<path d="M113.163 82.4418H85.4507V22H115.155C122.65 22.1093 127.96 24.2553 131.085 28.4378C132.966 31.0075 133.907 34.0829 133.907 37.664C133.907 41.3545 132.966 44.3205 131.085 46.5622C130.034 47.8197 128.486 48.9678 126.439 50.0066C129.564 51.1274 131.915 52.9043 133.492 55.3373C135.096 57.7703 135.898 60.7227 135.898 64.1944C135.898 67.7756 134.985 70.9877 133.16 73.8307C131.998 75.7169 130.546 77.3025 128.804 78.5873C126.84 80.0635 124.517 81.075 121.834 81.6217C119.179 82.1684 116.289 82.4418 113.163 82.4418ZM112.873 55.8294H97.6476V71.9444H112.666C115.348 71.9444 117.437 71.5891 118.93 70.8783C121.64 69.5661 122.996 67.0511 122.996 63.3333C122.996 60.1896 121.682 58.03 119.054 56.8545C117.589 56.1984 115.528 55.8567 112.873 55.8294ZM119.22 44.3069C120.88 43.3228 121.71 41.5595 121.71 39.0172C121.71 36.2015 120.603 34.3426 118.391 33.4405C116.482 32.8117 114.048 32.4974 111.089 32.4974H97.6476V45.8241H112.666C115.348 45.8241 117.533 45.3183 119.22 44.3069Z" fill="#F8F8F7"/>
<path d="M147.39 42.5847C150.515 38.6481 155.88 36.6799 163.486 36.6799C168.437 36.6799 172.834 37.6504 176.679 39.5913C180.523 41.5322 182.445 45.1953 182.445 50.5807V71.0833C182.445 72.5049 182.473 74.2271 182.528 76.25C182.611 77.7809 182.846 78.8197 183.234 79.3664C183.621 79.9131 184.202 80.3642 184.976 80.7196V82.4418H172.115C171.756 81.5397 171.507 80.6922 171.369 79.8995C171.23 79.1067 171.12 78.2046 171.037 77.1931C169.405 78.9427 167.524 80.4325 165.395 81.6627C162.85 83.1116 159.974 83.836 156.765 83.836C152.672 83.836 149.284 82.6878 146.601 80.3915C143.946 78.0679 142.619 74.7875 142.619 70.5503C142.619 65.0556 144.762 61.078 149.049 58.6177C151.4 57.2782 154.857 56.3214 159.421 55.7474L163.445 55.2553C165.63 54.9819 167.192 54.6402 168.133 54.2302C169.82 53.5194 170.663 52.4123 170.663 50.9087C170.663 49.0772 170.013 47.8197 168.713 47.1362C167.441 46.4255 165.56 46.0701 163.071 46.0701C160.278 46.0701 158.3 46.7535 157.139 48.1204C156.309 49.1318 155.756 50.4987 155.479 52.2209H144.071C144.32 48.3117 145.426 45.0996 147.39 42.5847ZM156.185 73.9947C157.291 74.8968 158.646 75.3479 160.25 75.3479C162.795 75.3479 165.132 74.6098 167.261 73.1336C169.419 71.6574 170.539 68.9647 170.622 65.0556V60.709C169.875 61.1737 169.114 61.5564 168.34 61.8571C167.593 62.1305 166.556 62.3902 165.229 62.6362L162.573 63.1283C160.084 63.5657 158.3 64.0988 157.222 64.7275C155.396 65.7937 154.484 67.4475 154.484 69.6892C154.484 71.6847 155.051 73.1199 156.185 73.9947Z" fill="#F8F8F7"/>
<path d="M234.137 22.082V82.4418H222.645V76.25C220.958 78.9017 219.036 80.8289 216.879 82.0317C214.722 83.2346 212.039 83.836 208.831 83.836C203.548 83.836 199.095 81.731 195.472 77.5212C191.877 73.284 190.079 67.8576 190.079 61.2421C190.079 53.6151 191.849 47.6146 195.389 43.2407C198.957 38.8668 203.714 36.6799 209.66 36.6799C212.398 36.6799 214.832 37.2813 216.962 38.4841C219.091 39.6596 220.82 41.2998 222.148 43.4048V22.082H234.137ZM202.276 60.381C202.276 64.5088 203.105 67.8029 204.765 70.2632C206.397 72.7509 208.886 73.9947 212.232 73.9947C215.579 73.9947 218.123 72.7645 219.866 70.3042C221.608 67.8439 222.48 64.6592 222.48 60.75C222.48 55.2826 221.083 51.3735 218.289 49.0225C216.575 47.601 214.583 46.8902 212.315 46.8902C208.858 46.8902 206.314 48.1887 204.682 50.7857C203.078 53.3554 202.276 56.5538 202.276 60.381Z" fill="#F8F8F7"/>
<path d="M282.634 43.4048C286.451 48.134 288.36 53.7244 288.36 60.1759C288.36 66.7368 286.451 72.3545 282.634 77.0291C278.818 81.6764 273.023 84 265.252 84C257.48 84 251.686 81.6764 247.869 77.0291C244.052 72.3545 242.144 66.7368 242.144 60.1759C242.144 53.7244 244.052 48.134 247.869 43.4048C251.686 38.6755 257.48 36.3108 265.252 36.3108C273.023 36.3108 278.818 38.6755 282.634 43.4048ZM265.21 46.1931C261.753 46.1931 259.084 47.4096 257.203 49.8426C255.35 52.2482 254.424 55.6927 254.424 60.1759C254.424 64.6592 255.35 68.1173 257.203 70.5503C259.084 72.9832 261.753 74.1997 265.21 74.1997C268.667 74.1997 271.323 72.9832 273.176 70.5503C275.029 68.1173 275.955 64.6592 275.955 60.1759C275.955 55.6927 275.029 52.2482 273.176 49.8426C271.323 47.4096 268.667 46.1931 265.21 46.1931Z" fill="#F8F8F7"/>
<path d="M335.571 69.3201C335.267 71.9718 333.87 74.6645 331.381 77.3981C327.509 81.7447 322.088 83.918 315.118 83.918C309.365 83.918 304.29 82.0864 299.893 78.4233C295.495 74.7601 293.296 68.8007 293.296 60.545C293.296 52.8086 295.274 46.8765 299.229 42.7487C303.212 38.6208 308.37 36.5569 314.703 36.5569C318.465 36.5569 321.853 37.254 324.867 38.6481C327.882 40.0423 330.371 42.2429 332.335 45.25C334.105 47.9017 335.253 50.9771 335.778 54.4762C336.082 56.5265 336.207 59.4788 336.152 63.3333H305.203C305.369 67.8166 306.793 70.9603 309.476 72.7645C311.108 73.8854 313.071 74.4458 315.367 74.4458C317.801 74.4458 319.778 73.7623 321.3 72.3955C322.129 71.6574 322.862 70.6323 323.498 69.3201H335.571ZM323.872 55.6243C323.678 52.5353 322.724 50.198 321.009 48.6124C319.322 46.9996 317.22 46.1931 314.703 46.1931C311.965 46.1931 309.836 47.0406 308.314 48.7354C306.821 50.4303 305.881 52.7266 305.493 55.6243H323.872Z" fill="#F8F8F7"/>
<path d="M339.719 37.746H352.995L362.412 70.7143L372.037 37.746H384.732L368.428 82.4418H355.941L339.719 37.746Z" fill="#F8F8F7"/>
<path d="M460.486 22V32.7024H442.19V82.4418H429.33V32.7024H410.951V22H460.486Z" fill="#F8F8F7"/>
<path d="M499.441 69.3201C499.137 71.9718 497.74 74.6645 495.251 77.3981C491.379 81.7447 485.958 83.918 478.989 83.918C473.236 83.918 468.161 82.0864 463.763 78.4233C459.366 74.7601 457.167 68.8007 457.167 60.545C457.167 52.8086 459.144 46.8765 463.099 42.7487C467.082 38.6208 472.24 36.5569 478.574 36.5569C482.335 36.5569 485.723 37.254 488.738 38.6481C491.752 40.0423 494.242 42.2429 496.205 45.25C497.975 47.9017 499.123 50.9771 499.649 54.4762C499.953 56.5265 500.077 59.4788 500.022 63.3333H469.073C469.239 67.8166 470.664 70.9603 473.346 72.7645C474.978 73.8854 476.942 74.4458 479.237 74.4458C481.671 74.4458 483.649 73.7623 485.17 72.3955C486 71.6574 486.733 70.6323 487.369 69.3201H499.441ZM487.742 55.6243C487.548 52.5353 486.594 50.198 484.88 48.6124C483.192 46.9996 481.09 46.1931 478.574 46.1931C475.836 46.1931 473.706 47.0406 472.185 48.7354C470.691 50.4303 469.751 52.7266 469.364 55.6243H487.742Z" fill="#F8F8F7"/>
<path d="M509.73 42.5847C512.855 38.6481 518.221 36.6799 525.826 36.6799C530.777 36.6799 535.175 37.6504 539.019 39.5913C542.863 41.5322 544.786 45.1953 544.786 50.5807V71.0833C544.786 72.5049 544.813 74.2271 544.869 76.25C544.952 77.7809 545.187 78.8197 545.574 79.3664C545.961 79.9131 546.542 80.3642 547.316 80.7196V82.4418H534.456C534.096 81.5397 533.847 80.6922 533.709 79.8995C533.57 79.1067 533.46 78.2046 533.377 77.1931C531.745 78.9427 529.864 80.4325 527.735 81.6627C525.19 83.1116 522.314 83.836 519.106 83.836C515.012 83.836 511.624 82.6878 508.942 80.3915C506.286 78.0679 504.959 74.7875 504.959 70.5503C504.959 65.0556 507.102 61.078 511.389 58.6177C513.74 57.2782 517.197 56.3214 521.761 55.7474L525.785 55.2553C527.97 54.9819 529.532 54.6402 530.473 54.2302C532.16 53.5194 533.003 52.4123 533.003 50.9087C533.003 49.0772 532.354 47.8197 531.054 47.1362C529.781 46.4255 527.901 46.0701 525.412 46.0701C522.618 46.0701 520.641 46.7535 519.479 48.1204C518.649 49.1318 518.096 50.4987 517.82 52.2209H506.411C506.66 48.3117 507.766 45.0996 509.73 42.5847ZM518.525 73.9947C519.631 74.8968 520.986 75.3479 522.59 75.3479C525.135 75.3479 527.472 74.6098 529.602 73.1336C531.759 71.6574 532.879 68.9647 532.962 65.0556V60.709C532.215 61.1737 531.455 61.5564 530.68 61.8571C529.934 62.1305 528.896 62.3902 527.569 62.6362L524.914 63.1283C522.425 63.5657 520.641 64.0988 519.562 64.7275C517.737 65.7937 516.824 67.4475 516.824 69.6892C516.824 71.6847 517.391 73.1199 518.525 73.9947Z" fill="#F8F8F7"/>
<path d="M580.713 50.0476C579.717 47.888 577.767 46.8082 574.863 46.8082C571.489 46.8082 569.221 47.888 568.059 50.0476C567.423 51.2778 567.105 53.1093 567.105 55.5423V82.4418H555.116V37.828H566.607V44.3479C568.073 42.0243 569.456 40.3704 570.756 39.3862C573.051 37.6367 576.025 36.7619 579.675 36.7619C583.133 36.7619 585.926 37.5137 588.056 39.0172C589.77 40.4114 591.07 42.2019 591.955 44.3889C593.504 41.7645 595.426 39.8373 597.722 38.6071C600.156 37.377 602.866 36.7619 605.853 36.7619C607.845 36.7619 609.808 37.1446 611.744 37.9101C613.68 38.6755 615.437 40.015 617.013 41.9286C618.285 43.4868 619.143 45.4004 619.585 47.6693C619.862 49.1728 620 51.3735 620 54.2712L619.917 82.4418H607.803V53.9841C607.803 52.2892 607.526 50.8951 606.973 49.8016C605.922 47.724 603.986 46.6852 601.165 46.6852C597.902 46.6852 595.648 48.0247 594.403 50.7037C593.767 52.1252 593.449 53.8338 593.449 55.8294V82.4418H581.542V55.8294C581.542 53.1777 581.266 51.2504 580.713 50.0476Z" fill="#F8F8F7"/>
<path d="M44.672 457.677V428H55.3226V457.677C55.3226 462.808 54.4946 466.804 52.8386 469.665C49.7534 474.906 43.8667 477.526 35.1783 477.526C26.49 477.526 20.5919 474.906 17.484 469.665C15.828 466.804 15 462.808 15 457.677V428H25.6506V457.677C25.6506 460.996 26.0589 463.42 26.8756 464.948C28.146 467.656 30.9135 469.01 35.1783 469.01C39.4204 469.01 42.1766 467.656 43.447 464.948C44.2637 463.42 44.672 460.996 44.672 457.677Z" fill="#F8F8F7"/>
<path d="M109.801 476.282H96.3258L80.8433 455.187L75.8412 460.133V476.282H65.5309V428H75.8412V447.883L95.2029 428H108.746L88.1932 447.883L109.801 476.282Z" fill="#F8F8F7"/>
<path d="M137.023 457.349H126.202V476.282H115.96V428H140.562C144.078 428.066 146.777 428.48 148.66 429.245C150.566 430.009 152.176 431.134 153.492 432.619C154.581 433.841 155.443 435.195 156.078 436.68C156.713 438.165 157.031 439.858 157.031 441.757C157.031 444.05 156.43 446.31 155.227 448.538C154.025 450.743 152.04 452.305 149.273 453.222C151.586 454.117 153.22 455.395 154.173 457.054C155.148 458.692 155.636 461.203 155.636 464.588V467.831C155.636 470.036 155.726 471.532 155.908 472.318C156.18 473.563 156.815 474.48 157.814 475.07V476.282H146.278C145.961 475.212 145.734 474.349 145.598 473.694C145.325 472.34 145.178 470.954 145.155 469.534L145.087 465.047C145.042 461.968 144.452 459.915 143.318 458.889C142.206 457.862 140.108 457.349 137.023 457.349ZM143.386 448.571C145.473 447.653 146.516 445.841 146.516 443.133C146.516 440.207 145.507 438.242 143.488 437.237C142.354 436.669 140.652 436.385 138.384 436.385H126.202V449.357H138.078C140.437 449.357 142.206 449.095 143.386 448.571Z" fill="#F8F8F7"/>
<path d="M195.448 466.357H176.971L173.5 476.282H162.543L180.442 428H192.283L210.046 476.282H198.681L195.448 466.357ZM192.522 458.037L186.261 439.039L179.795 458.037H192.522Z" fill="#F8F8F7"/>
<path d="M257.004 476.282H246.523L226.039 441.987V476.282H216.273V428H227.264L247.238 461.706V428H257.004V476.282Z" fill="#F8F8F7"/>
<path d="M265.987 428H276.399V476.282H265.987V428Z" fill="#F8F8F7"/>
<path d="M315.565 466.357H297.088L293.617 476.282H282.66L300.559 428H312.401L330.163 476.282H318.798L315.565 466.357ZM312.639 458.037L306.378 439.039L299.912 458.037H312.639Z" fill="#F8F8F7"/>
<path d="M377.121 476.282H366.64L346.156 441.987V476.282H336.39V428H347.381L367.355 461.706V428H377.121V476.282Z" fill="#F8F8F7"/>
<path d="M112.489 496.408H87.3425V507.512H109.358V515.898H87.3425V536.141H76.9301V487.925H112.489V496.408Z" fill="#F8F8F7"/>
<path d="M145.087 526.216H126.61L123.139 536.141H112.183L130.081 487.859H141.923L159.685 536.141H148.32L145.087 526.216ZM142.161 517.896L135.9 498.898L129.435 517.896H142.161Z" fill="#F8F8F7"/>
<path d="M184.287 529.164C186.76 529.164 188.767 528.902 190.31 528.378C193.236 527.373 194.699 525.506 194.699 522.777C194.699 521.182 193.973 519.949 192.522 519.075C191.07 518.224 188.79 517.47 185.682 516.815L180.374 515.669C175.156 514.533 171.549 513.299 169.553 511.967C166.173 509.74 164.483 506.257 164.483 501.518C164.483 497.194 166.116 493.602 169.383 490.742C172.65 487.881 177.447 486.451 183.777 486.451C189.062 486.451 193.565 487.805 197.285 490.512C201.028 493.198 202.991 497.107 203.172 502.239H193.1C192.919 499.335 191.603 497.271 189.153 496.048C187.52 495.24 185.489 494.836 183.062 494.836C180.362 494.836 178.207 495.36 176.597 496.408C174.986 497.457 174.181 498.92 174.181 500.798C174.181 502.523 174.975 503.811 176.563 504.663C177.583 505.231 179.761 505.897 183.096 506.661L191.739 508.659C195.527 509.532 198.386 510.701 200.314 512.164C203.308 514.435 204.806 517.721 204.806 522.023C204.806 526.434 203.047 530.103 199.531 533.029C196.038 535.933 191.092 537.386 184.695 537.386C178.162 537.386 173.024 535.955 169.281 533.095C165.538 530.212 163.666 526.26 163.666 521.237H173.67C173.988 523.443 174.612 525.091 175.542 526.183C177.243 528.17 180.158 529.164 184.287 529.164Z" fill="#F8F8F7"/>
<path d="M242.474 536.141V514.588H222.874V536.141H212.496V487.859H222.874V506.268H242.474V487.859H252.886V536.141H242.474Z" fill="#F8F8F7"/>
<path d="M262.108 487.859H272.52V536.141H262.108V487.859Z" fill="#F8F8F7"/>
<path d="M304.506 537.484C297.338 537.484 291.859 535.606 288.071 531.85C282.989 527.242 280.449 520.604 280.449 511.934C280.449 503.09 282.989 496.452 288.071 492.019C291.859 488.263 297.338 486.385 304.506 486.385C311.675 486.385 317.153 488.263 320.941 492.019C326 496.452 328.53 503.09 328.53 511.934C328.53 520.604 326 527.242 320.941 531.85C317.153 535.606 311.675 537.484 304.506 537.484ZM314.408 524.513C316.835 521.565 318.049 517.372 318.049 511.934C318.049 506.519 316.824 502.337 314.374 499.389C311.947 496.419 308.658 494.934 304.506 494.934C300.355 494.934 297.043 496.408 294.57 499.356C292.097 502.304 290.861 506.497 290.861 511.934C290.861 517.372 292.097 521.565 294.57 524.513C297.043 527.461 300.355 528.935 304.506 528.935C308.658 528.935 311.958 527.461 314.408 524.513Z" fill="#F8F8F7"/>
<path d="M377.121 536.141H366.64L346.156 501.846V536.141H336.39V487.859H347.381L367.355 521.565V487.859H377.121V536.141Z" fill="#F8F8F7"/>
<path d="M226.583 547.718H237.234L223.112 596H213.108L207.051 567.765L205.282 558.429L203.512 567.765L197.456 596H187.724L173.5 547.718H184.627L191.263 575.364L192.692 583.062L194.155 575.528L199.803 547.718H210.862L216.817 575.364L218.348 583.062L219.88 575.659L226.583 547.718Z" fill="#F8F8F7"/>
<path d="M278.509 574.905H254.145V587.32H281.912V596H243.903V547.718H280.687V556.267H254.145V566.52H278.509V574.905Z" fill="#F8F8F7"/>
<path d="M324.991 574.905H300.627V587.32H328.393V596H290.385V547.718H327.168V556.267H300.627V566.52H324.991V574.905Z" fill="#F8F8F7"/>
<path d="M381 596H367.525L352.043 574.905L347.041 579.851V596H336.73V547.718H347.041V567.601L366.402 547.718H379.945L359.393 567.601L381 596Z" fill="#F8F8F7"/>
<path d="M232.975 764C238.839 764 243.798 764.55 247.852 765.649C251.906 766.749 255.127 768.874 257.516 772.026C259.978 775.105 261.208 779.539 261.208 785.33C261.208 787.895 260.81 790.534 260.014 793.246C259.29 795.885 258.349 798.194 257.19 800.173C256.105 802.152 255.127 803.435 254.259 804.021C253.245 804.754 251.001 805.34 247.526 805.78C244.051 806.147 239.961 806.33 235.256 806.33C233.591 806.33 231.021 806.257 227.546 806.11V827H208V764.33C215.601 764.11 223.926 764 232.975 764ZM241.119 792.257C241.843 791.304 242.205 789.398 242.205 786.539C242.205 782.801 241.409 780.162 239.816 778.623C238.296 777.084 235.618 776.314 231.781 776.314C230.478 776.314 229.066 776.424 227.546 776.644V793.356C228.27 793.429 229.681 793.466 231.781 793.466C237.355 793.466 240.468 793.063 241.119 792.257Z" fill="#F8F8F7"/>
<path d="M268.235 764.33H287.781V827H268.235V764.33Z" fill="#F8F8F7"/>
<path d="M316.907 801.712V827H298.773V764.33H317.124L333.521 789.618C335.982 793.356 337.865 796.508 339.168 799.073H339.493V788.518V764.33H357.519V827H339.059L322.228 800.613L317.341 793.136H317.016L316.907 801.712Z" fill="#F8F8F7"/>
<path d="M426 827H404.608L392.555 803.581C392.338 803.215 391.759 802.188 390.817 800.503C389.949 798.817 388.971 797.204 387.886 795.665V827H368.34V764.33H387.886V792.806C389.116 791.414 390.166 789.911 391.035 788.298C391.976 786.613 392.519 785.623 392.663 785.33L404.282 764.33H424.914L412.535 785.33C412.318 785.623 411.847 786.393 411.123 787.639C410.4 788.885 409.603 790.058 408.734 791.157C407.938 792.183 407.069 793.136 406.128 794.016C407.431 795.262 408.481 796.508 409.277 797.754C410.146 798.927 411.123 800.503 412.209 802.482L426 827Z" fill="#F8F8F7"/>
<path d="M-130.291 602.963L-165.139 546H-117.288L-93.3624 591.898L-68.6565 546H-22.1056L-56.4337 602.963L-19.765 663H-67.6163L-93.3624 613.413L-119.889 663H-168L-130.291 602.963Z" fill="#F8F8F7"/>
<path d="M-2.49532 602.963L-37.3435 546H10.5078L34.4334 591.898L59.1392 546H105.69L71.3621 602.963L108.031 663H60.1795L34.4334 613.413L7.90715 663H-40.2042L-2.49532 602.963Z" fill="#F8F8F7"/>
<path d="M100.595 546H147.406V635.748H208V662.795H100.595V546Z" fill="#F8F8F7"/>
<path d="M258.846 632.856L244.202 609H264.31L274.364 628.222L284.745 609H304.307L289.882 632.856L305.29 658H285.183L274.364 637.233L263.217 658H243L258.846 632.856Z" fill="#F8F8F7"/>
<path d="M312.547 632.856L297.904 609H318.011L328.065 628.222L338.447 609H358.008L343.583 632.856L358.992 658H338.884L328.065 637.233L316.918 658H296.701L312.547 632.856Z" fill="#F8F8F7"/>
<path d="M355.867 609H375.537V646.587H401V657.914H355.867V609Z" fill="#F8F8F7"/>
<path d="M-378.925 148.26V103.75H-362.982V148.26C-362.982 155.957 -364.222 161.951 -366.701 166.241C-371.319 174.102 -380.13 178.032 -393.136 178.032C-406.141 178.032 -414.97 174.102 -419.622 166.241C-422.1 161.951 -423.34 155.957 -423.34 148.26V103.75H-407.397V148.26C-407.397 153.239 -406.786 156.874 -405.564 159.167C-403.662 163.228 -399.519 165.259 -393.136 165.259C-386.786 165.259 -382.66 163.228 -380.759 159.167C-379.536 156.874 -378.925 153.239 -378.925 148.26Z" fill="#E7E9E4" fill-opacity="0.12"/>
<path d="M-281.436 176.165H-301.606L-324.782 144.527L-332.269 151.945V176.165H-347.702V103.75H-332.269V133.571L-303.287 103.75H-283.015L-313.78 133.571L-281.436 176.165Z" fill="#E7E9E4" fill-opacity="0.12"/>
<path d="M-240.689 147.769H-256.886V176.165H-272.217V103.75H-235.391C-230.128 103.849 -226.087 104.471 -223.269 105.617C-220.417 106.763 -218.006 108.45 -216.036 110.677C-214.406 112.511 -213.116 114.542 -212.165 116.769C-211.214 118.996 -210.739 121.535 -210.739 124.384C-210.739 127.823 -211.639 131.213 -213.439 134.554C-215.238 137.862 -218.209 140.203 -222.352 141.579C-218.889 142.922 -216.444 144.838 -215.018 147.327C-213.557 149.783 -212.827 153.55 -212.827 158.627V163.49C-212.827 166.798 -212.692 169.042 -212.42 170.221C-212.012 172.088 -211.062 173.463 -209.568 174.348V176.165H-226.834C-227.31 174.56 -227.649 173.267 -227.853 172.284C-228.261 170.254 -228.481 168.174 -228.515 166.045L-228.617 159.314C-228.685 154.696 -229.568 151.618 -231.266 150.078C-232.93 148.539 -236.071 147.769 -240.689 147.769ZM-231.164 134.603C-228.04 133.227 -226.478 130.509 -226.478 126.448C-226.478 122.059 -227.989 119.111 -231.011 117.604C-232.709 116.753 -235.256 116.327 -238.651 116.327H-256.886V135.782H-239.11C-235.578 135.782 -232.93 135.389 -231.164 134.603Z" fill="#E7E9E4" fill-opacity="0.12"/>
<path d="M-153.234 161.279H-180.891L-186.087 176.165H-202.488L-175.696 103.75H-157.971L-131.383 176.165H-148.395L-153.234 161.279ZM-157.614 148.801L-166.986 120.306L-176.664 148.801H-157.614Z" fill="#E7E9E4" fill-opacity="0.12"/>
<path d="M-61.0934 176.165H-76.7813L-107.444 124.728V176.165H-122.062V103.75H-105.61L-75.7116 154.303V103.75H-61.0934V176.165Z" fill="#E7E9E4" fill-opacity="0.12"/>
<path d="M-47.6467 103.75H-32.0607V176.165H-47.6467V103.75Z" fill="#E7E9E4" fill-opacity="0.12"/>
<path d="M26.5649 161.279H-1.09255L-6.28787 176.165H-22.6888L4.10278 103.75H21.828L48.4158 176.165H31.4037L26.5649 161.279ZM22.1845 148.801L12.8126 120.306L3.13502 148.801H22.1845Z" fill="#E7E9E4" fill-opacity="0.12"/>
<path d="M118.705 176.165H103.018L72.3551 124.728V176.165H57.7368V103.75H74.1887L104.087 154.303V103.75H118.705V176.165Z" fill="#E7E9E4" fill-opacity="0.12"/>
<path d="M-277.412 206.352H-315.053V223.007H-282.098V235.583H-315.053V265.945H-330.639V193.628H-277.412V206.352Z" fill="#E7E9E4" fill-opacity="0.12"/>
<path d="M-228.617 251.059H-256.275L-261.47 265.945H-277.871L-251.079 193.53H-233.354L-206.766 265.945H-223.778L-228.617 251.059ZM-232.997 238.58L-242.369 210.086L-252.047 238.58H-232.997Z" fill="#E7E9E4" fill-opacity="0.12"/>
<path d="M-169.941 255.48C-166.239 255.48 -163.234 255.087 -160.925 254.301C-156.545 252.795 -154.355 249.994 -154.355 245.9C-154.355 243.509 -155.441 241.659 -157.614 240.349C-159.788 239.071 -163.2 237.942 -167.852 236.959L-175.798 235.239C-183.608 233.536 -189.007 231.686 -191.995 229.688C-197.055 226.347 -199.584 221.123 -199.584 214.016C-199.584 207.531 -197.14 202.143 -192.25 197.853C-187.36 193.562 -180.178 191.417 -170.705 191.417C-162.793 191.417 -156.052 193.448 -150.484 197.509C-144.881 201.537 -141.944 207.4 -141.672 215.097H-156.748C-157.02 210.741 -158.99 207.646 -162.657 205.812C-165.102 204.6 -168.141 203.994 -171.774 203.994C-175.815 203.994 -179.041 204.78 -181.452 206.352C-183.863 207.924 -185.068 210.119 -185.068 212.935C-185.068 215.523 -183.88 217.455 -181.503 218.732C-179.975 219.584 -176.715 220.583 -171.723 221.729L-158.786 224.726C-153.115 226.036 -148.837 227.788 -145.95 229.983C-141.468 233.389 -139.227 238.318 -139.227 244.77C-139.227 251.386 -141.859 256.889 -147.122 261.277C-152.351 265.633 -159.754 267.812 -169.329 267.812C-179.109 267.812 -186.8 265.666 -192.403 261.376C-198.005 257.052 -200.807 251.124 -200.807 243.591H-185.832C-185.357 246.899 -184.423 249.372 -183.031 251.01C-180.484 253.99 -176.121 255.48 -169.941 255.48Z" fill="#E7E9E4" fill-opacity="0.12"/>
<path d="M-82.8425 265.945V233.618H-112.181V265.945H-127.716V193.53H-112.181V221.14H-82.8425V193.53H-67.2565V265.945H-82.8425Z" fill="#E7E9E4" fill-opacity="0.12"/>
<path d="M-53.4532 193.53H-37.8673V265.945H-53.4532V193.53Z" fill="#E7E9E4" fill-opacity="0.12"/>
<path d="M10.0112 267.959C-0.719025 267.959 -8.91949 265.142 -14.5902 259.509C-22.1964 252.598 -25.9995 242.641 -25.9995 229.639C-25.9995 216.374 -22.1964 206.418 -14.5902 199.769C-8.91949 194.135 -0.719025 191.319 10.0112 191.319C20.7414 191.319 28.9419 194.135 34.6126 199.769C42.1848 206.418 45.971 216.374 45.971 229.639C45.971 242.641 42.1848 252.598 34.6126 259.509C28.9419 265.142 20.7414 267.959 10.0112 267.959ZM24.8331 248.504C28.4665 244.083 30.2831 237.794 30.2831 229.639C30.2831 221.516 28.4495 215.244 24.7822 210.823C21.1489 206.368 16.2252 204.141 10.0112 204.141C3.79717 204.141 -1.16046 206.352 -4.8617 210.774C-8.56294 215.195 -10.4136 221.484 -10.4136 229.639C-10.4136 237.794 -8.56294 244.083 -4.8617 248.504C-1.16046 252.926 3.79717 255.136 10.0112 255.136C16.2252 255.136 21.1658 252.926 24.8331 248.504Z" fill="#E7E9E4" fill-opacity="0.12"/>
<path d="M118.705 265.945H103.018L72.3551 214.507V265.945H57.7368V193.53H74.1887L104.087 244.083V193.53H118.705V265.945Z" fill="#E7E9E4" fill-opacity="0.12"/>
<path d="M-106.629 283.309H-90.6864L-111.824 355.724H-126.799L-135.865 313.375L-138.514 299.374L-141.163 313.375L-150.229 355.724H-164.796L-186.087 283.309H-169.431L-159.499 324.773L-157.36 336.318L-155.17 325.019L-146.714 283.309H-130.161L-121.247 324.773L-118.955 336.318L-116.663 325.215L-106.629 283.309Z" fill="#E7E9E4" fill-opacity="0.12"/>
<path d="M-28.9028 324.085H-65.3719V342.705H-23.8093V355.724H-80.7032V283.309H-25.643V296.131H-65.3719V311.508H-28.9028V324.085Z" fill="#E7E9E4" fill-opacity="0.12"/>
<path d="M40.6738 324.085H4.20465V342.705H45.7672V355.724H-11.1266V283.309H43.9336V296.131H4.20465V311.508H40.6738V324.085Z" fill="#E7E9E4" fill-opacity="0.12"/>
<path d="M124.512 355.724H104.342L81.1667 324.085L73.6794 331.504V355.724H58.2462V283.309H73.6794V313.13L102.661 283.309H122.933L92.1686 313.13L124.512 355.724Z" fill="#E7E9E4" fill-opacity="0.12"/>
<path d="M-846.979 66.4581H-877.604L-883.357 83.481H-901.518L-871.851 0.670166H-852.224L-822.784 83.481H-841.621L-846.979 66.4581ZM-851.83 52.1881L-862.207 19.6032L-872.923 52.1881H-851.83Z" fill="#E7E9E4" fill-opacity="0.12"/>
<path d="M-813.139 0.670166H-797.066V83.481H-813.139V0.670166Z" fill="#E7E9E4" fill-opacity="0.12"/>
<path d="M-779.018 28.873C-774.769 23.4797 -767.475 20.783 -757.135 20.783C-750.404 20.783 -744.426 22.1126 -739.2 24.7718C-733.973 27.431 -731.36 32.4499 -731.36 39.8283V67.9188C-731.36 69.8664 -731.323 72.226 -731.247 74.9976C-731.135 77.095 -730.815 78.5183 -730.289 79.2674C-729.762 80.0165 -728.973 80.6345 -727.92 81.1214V83.481H-745.404C-745.892 82.245 -746.231 81.0839 -746.419 79.9977C-746.607 78.9116 -746.757 77.6756 -746.87 76.2898C-749.088 78.6868 -751.645 80.7281 -754.54 82.4135C-758 84.3986 -761.91 85.3911 -766.271 85.3911C-771.836 85.3911 -776.442 83.818 -780.089 80.6719C-783.699 77.4883 -785.504 72.9938 -785.504 67.1885C-785.504 59.6602 -782.59 54.2107 -776.762 50.8398C-773.566 49.0046 -768.866 47.6937 -762.662 46.9071L-757.191 46.233C-754.221 45.8584 -752.096 45.3902 -750.818 44.8284C-748.524 43.8546 -747.378 42.3377 -747.378 40.2778C-747.378 37.7683 -748.261 36.0455 -750.028 35.1091C-751.758 34.1353 -754.315 33.6484 -757.699 33.6484C-761.496 33.6484 -764.185 34.5848 -765.764 36.4575C-766.892 37.8433 -767.644 39.716 -768.02 42.0756H-783.53C-783.191 36.7196 -781.687 32.3188 -779.018 28.873ZM-767.061 71.9077C-765.557 73.1436 -763.715 73.7616 -761.534 73.7616C-758.075 73.7616 -754.898 72.7504 -752.002 70.7279C-749.07 68.7054 -747.547 65.0161 -747.434 59.6602V53.705C-748.449 54.3417 -749.483 54.8661 -750.536 55.2781C-751.551 55.6526 -752.961 56.0084 -754.766 56.3455L-758.376 57.0197C-761.76 57.619 -764.185 58.3493 -765.651 59.2108C-768.133 60.6715 -769.373 62.9374 -769.373 66.0087C-769.373 68.7428 -768.603 70.7091 -767.061 71.9077Z" fill="#E7E9E4" fill-opacity="0.12"/>
<path d="M-688.102 34.0979C-693.554 34.0979 -697.295 36.4013 -699.325 41.0081C-700.378 43.4426 -700.904 46.5513 -700.904 50.3342V83.481H-716.922V22.356H-701.412V31.2888C-699.344 28.1427 -697.389 25.8767 -695.546 24.4909C-692.238 22.0189 -688.045 20.783 -682.969 20.783C-676.615 20.783 -671.426 22.4497 -667.403 25.7831C-663.342 29.079 -661.312 34.566 -661.312 42.2441V83.481H-677.781V46.233C-677.781 43.0119 -678.213 40.5399 -679.078 38.8171C-680.657 35.6709 -683.665 34.0979 -688.102 34.0979Z" fill="#E7E9E4" fill-opacity="0.12"/>
<path d="M-575.021 83.481H-612.695V0.670166H-572.313C-562.124 0.819982 -554.905 3.76012 -550.656 9.49058C-548.099 13.0113 -546.821 17.2248 -546.821 22.1313C-546.821 27.1876 -548.099 31.2514 -550.656 34.3226C-552.085 36.0455 -554.19 37.6185 -556.973 39.0418C-552.724 40.5774 -549.528 43.0119 -547.385 46.3453C-545.204 49.6787 -544.114 53.7238 -544.114 58.4804C-544.114 63.3869 -545.354 67.7877 -547.836 71.6829C-549.415 74.2673 -551.389 76.4396 -553.758 78.1999C-556.428 80.2225 -559.586 81.6083 -563.233 82.3573C-566.843 83.1064 -570.772 83.481 -575.021 83.481ZM-575.415 47.0195H-596.114V69.0986H-575.697C-572.05 69.0986 -569.211 68.6117 -567.181 67.6379C-563.496 65.8401 -561.654 62.3944 -561.654 57.3006C-561.654 52.9934 -563.44 50.0345 -567.012 48.424C-569.005 47.5251 -571.806 47.0569 -575.415 47.0195ZM-566.786 31.2326C-564.53 29.8843 -563.402 27.4685 -563.402 23.9853C-563.402 20.1275 -564.906 17.5806 -567.914 16.3447C-570.509 15.4832 -573.817 15.0525 -577.841 15.0525H-596.114V33.3113H-575.697C-572.05 33.3113 -569.08 32.6184 -566.786 31.2326Z" fill="#E7E9E4" fill-opacity="0.12"/>
<path d="M-528.491 28.873C-524.242 23.4797 -516.948 20.783 -506.608 20.783C-499.878 20.783 -493.899 22.1126 -488.673 24.7718C-483.447 27.431 -480.833 32.4499 -480.833 39.8283V67.9188C-480.833 69.8664 -480.796 72.226 -480.721 74.9976C-480.608 77.095 -480.288 78.5183 -479.762 79.2674C-479.235 80.0165 -478.446 80.6345 -477.393 81.1214V83.481H-494.877C-495.366 82.245 -495.704 81.0839 -495.892 79.9977C-496.08 78.9116 -496.23 77.6756 -496.343 76.2898C-498.562 78.6868 -501.118 80.7281 -504.014 82.4135C-507.473 84.3986 -511.383 85.3911 -515.745 85.3911C-521.309 85.3911 -525.915 83.818 -529.563 80.6719C-533.172 77.4883 -534.977 72.9938 -534.977 67.1885C-534.977 59.6602 -532.063 54.2107 -526.235 50.8398C-523.039 49.0046 -518.339 47.6937 -512.135 46.9071L-506.664 46.233C-503.694 45.8584 -501.57 45.3902 -500.291 44.8284C-497.998 43.8546 -496.851 42.3377 -496.851 40.2778C-496.851 37.7683 -497.734 36.0455 -499.502 35.1091C-501.231 34.1353 -503.788 33.6484 -507.172 33.6484C-510.97 33.6484 -513.658 34.5848 -515.237 36.4575C-516.365 37.8433 -517.117 39.716 -517.493 42.0756H-533.003C-532.665 36.7196 -531.161 32.3188 -528.491 28.873ZM-516.534 71.9077C-515.03 73.1436 -513.188 73.7616 -511.007 73.7616C-507.548 73.7616 -504.371 72.7504 -501.476 70.7279C-498.543 68.7054 -497.02 65.0161 -496.907 59.6602V53.705C-497.922 54.3417 -498.956 54.8661 -500.009 55.2781C-501.024 55.6526 -502.434 56.0084 -504.239 56.3455L-507.849 57.0197C-511.233 57.619 -513.658 58.3493 -515.124 59.2108C-517.606 60.6715 -518.847 62.9374 -518.847 66.0087C-518.847 68.7428 -518.076 70.7091 -516.534 71.9077Z" fill="#E7E9E4" fill-opacity="0.12"/>
<path d="M-410.56 0.782528V83.481H-426.182V74.9976C-428.476 78.6307 -431.089 81.2712 -434.022 82.9191C-436.954 84.5671 -440.602 85.3911 -444.963 85.3911C-452.145 85.3911 -458.198 82.5072 -463.124 76.7392C-468.012 70.9339 -470.456 63.4992 -470.456 54.4354C-470.456 43.9857 -468.049 35.7646 -463.237 29.7719C-458.386 23.7793 -451.919 20.783 -443.835 20.783C-440.113 20.783 -436.804 21.607 -433.909 23.2549C-431.014 24.8654 -428.664 27.1127 -426.859 29.9966V0.782528H-410.56ZM-453.874 53.2556C-453.874 58.9111 -452.746 63.4243 -450.49 66.7952C-448.272 70.2035 -444.888 71.9077 -440.338 71.9077C-435.789 71.9077 -432.33 70.2222 -429.961 66.8514C-427.592 63.4805 -426.408 59.1171 -426.408 53.7612C-426.408 46.2704 -428.307 40.9145 -432.104 37.6934C-434.435 35.7458 -437.142 34.772 -440.226 34.772C-444.926 34.772 -448.385 36.5511 -450.603 40.1092C-452.784 43.6299 -453.874 48.012 -453.874 53.2556Z" fill="#E7E9E4" fill-opacity="0.12"/>
<path d="M-344.628 29.9966C-339.44 36.4762 -336.845 44.1355 -336.845 52.9747C-336.845 61.9636 -339.44 69.6604 -344.628 76.0651C-349.817 82.4322 -357.694 85.6158 -368.26 85.6158C-378.825 85.6158 -386.702 82.4322 -391.891 76.0651C-397.08 69.6604 -399.674 61.9636 -399.674 52.9747C-399.674 44.1355 -397.08 36.4762 -391.891 29.9966C-386.702 23.5171 -378.825 20.2773 -368.26 20.2773C-357.694 20.2773 -349.817 23.5171 -344.628 29.9966ZM-368.316 33.817C-373.016 33.817 -376.645 35.4837 -379.201 38.8171C-381.721 42.113 -382.98 46.8322 -382.98 52.9747C-382.98 59.1171 -381.721 63.8551 -379.201 67.1885C-376.645 70.5219 -373.016 72.1886 -368.316 72.1886C-363.616 72.1886 -360.007 70.5219 -357.488 67.1885C-354.968 63.8551 -353.709 59.1171 -353.709 52.9747C-353.709 46.8322 -354.968 42.113 -357.488 38.8171C-360.007 35.4837 -363.616 33.817 -368.316 33.817Z" fill="#E7E9E4" fill-opacity="0.12"/>
<path d="M-272.663 65.503C-273.076 69.1361 -274.975 72.8253 -278.359 76.5707C-283.623 82.5259 -290.992 85.5035 -300.468 85.5035C-308.288 85.5035 -315.188 82.9941 -321.166 77.9752C-327.145 72.9564 -330.134 64.7914 -330.134 53.4803C-330.134 42.8808 -327.445 34.7533 -322.069 29.0977C-316.654 23.4422 -309.642 20.6144 -301.032 20.6144C-295.918 20.6144 -291.312 21.5695 -287.214 23.4797C-283.115 25.3898 -279.731 28.4049 -277.062 32.5248C-274.655 36.1578 -273.095 40.3714 -272.381 45.1655C-271.967 47.9746 -271.798 52.0196 -271.873 57.3006H-313.947C-313.721 63.4431 -311.785 67.7503 -308.138 70.2222C-305.92 71.7579 -303.25 72.5257 -300.129 72.5257C-296.82 72.5257 -294.132 71.5893 -292.064 69.7166C-290.936 68.7054 -289.94 67.3008 -289.075 65.503H-272.663ZM-288.567 46.7386C-288.831 42.5063 -290.128 39.304 -292.459 37.1316C-294.752 34.9218 -297.61 33.817 -301.032 33.817C-304.754 33.817 -307.649 34.978 -309.717 37.3002C-311.747 39.6223 -313.026 42.7685 -313.552 46.7386H-288.567Z" fill="#E7E9E4" fill-opacity="0.12"/>
<path d="M-267.023 22.2437H-248.975L-236.172 67.4132L-223.087 22.2437H-205.829L-227.994 83.481H-244.97L-267.023 22.2437Z" fill="#E7E9E4" fill-opacity="0.12"/>
<path d="M-102.844 0.670166V15.3334H-127.716V83.481H-145.2V15.3334H-170.185V0.670166H-102.844Z" fill="#E7E9E4" fill-opacity="0.12"/>
<path d="M-49.8844 65.503C-50.298 69.1361 -52.1968 72.8253 -55.5808 76.5707C-60.8447 82.5259 -68.2142 85.5035 -77.6894 85.5035C-85.5101 85.5035 -92.4096 82.9941 -98.388 77.9752C-104.366 72.9564 -107.356 64.7914 -107.356 53.4803C-107.356 42.8808 -104.667 34.7533 -99.2904 29.0977C-93.876 23.4422 -86.8637 20.6144 -78.2533 20.6144C-73.1398 20.6144 -68.5339 21.5695 -64.4355 23.4797C-60.3371 25.3898 -56.9531 28.4049 -54.2835 32.5248C-51.8772 36.1578 -50.3168 40.3714 -49.6024 45.1655C-49.1888 47.9746 -49.0196 52.0196 -49.0948 57.3006H-91.1689C-90.9433 63.4431 -89.0069 67.7503 -85.3597 70.2222C-83.1413 71.7579 -80.4717 72.5257 -77.351 72.5257C-74.0422 72.5257 -71.3538 71.5893 -69.2858 69.7166C-68.1578 68.7054 -67.1615 67.3008 -66.2967 65.503H-49.8844ZM-65.789 46.7386C-66.0522 42.5063 -67.3494 39.304 -69.6806 37.1316C-71.9742 34.9218 -74.8318 33.817 -78.2533 33.817C-81.9757 33.817 -84.8709 34.978 -86.9389 37.3002C-88.9693 39.6223 -90.2476 42.7685 -90.774 46.7386H-65.789Z" fill="#E7E9E4" fill-opacity="0.12"/>
<path d="M-35.8973 28.873C-31.6485 23.4797 -24.3542 20.783 -14.0143 20.783C-7.28391 20.783 -1.30555 22.1126 3.92081 24.7718C9.14717 27.431 11.7603 32.4499 11.7603 39.8283V67.9188C11.7603 69.8664 11.7979 72.226 11.8731 74.9976C11.9859 77.095 12.3055 78.5183 12.8319 79.2674C13.3583 80.0165 14.1479 80.6345 15.2007 81.1214V83.481H-2.28314C-2.77194 82.245 -3.11035 81.0839 -3.29835 79.9977C-3.48635 78.9116 -3.63673 77.6756 -3.74953 76.2898C-5.96791 78.6868 -8.5247 80.7281 -11.4199 82.4135C-14.879 84.3986 -18.7894 85.3911 -23.151 85.3911C-28.7157 85.3911 -33.3217 83.818 -36.9689 80.6719C-40.5785 77.4883 -42.3833 72.9938 -42.3833 67.1885C-42.3833 59.6602 -39.4693 54.2107 -33.6413 50.8398C-30.4453 49.0046 -25.7454 47.6937 -19.5414 46.9071L-14.0706 46.233C-11.1003 45.8584 -8.9759 45.3902 -7.69751 44.8284C-5.40393 43.8546 -4.25716 42.3377 -4.25716 40.2778C-4.25716 37.7683 -5.14074 36.0455 -6.90793 35.1091C-8.63752 34.1353 -11.1943 33.6484 -14.5783 33.6484C-18.3758 33.6484 -21.0642 34.5848 -22.6434 36.4575C-23.7714 37.8433 -24.5234 39.716 -24.8994 42.0756H-40.4092C-40.0708 36.7196 -38.5669 32.3188 -35.8973 28.873ZM-23.9406 71.9077C-22.4366 73.1436 -20.5942 73.7616 -18.4134 73.7616C-14.9542 73.7616 -11.7771 72.7504 -8.88189 70.7279C-5.94912 68.7054 -4.42635 65.0161 -4.31355 59.6602V53.705C-5.32875 54.3417 -6.36271 54.8661 -7.4155 55.2781C-8.43069 55.6526 -9.84071 56.0084 -11.6455 56.3455L-15.2551 57.0197C-18.6391 57.619 -21.0642 58.3493 -22.5306 59.2108C-25.0122 60.6715 -26.253 62.9374 -26.253 66.0087C-26.253 68.7428 -25.4822 70.7091 -23.9406 71.9077Z" fill="#E7E9E4" fill-opacity="0.12"/>
<path d="M60.6023 39.098C59.2487 36.1391 56.5979 34.6597 52.65 34.6597C48.0628 34.6597 44.9796 36.1391 43.4005 39.098C42.5357 40.7834 42.1033 43.2928 42.1033 46.6262V83.481H25.8038V22.356H41.4265V31.2888C43.4193 28.1052 45.2992 25.8393 47.0664 24.4909C50.1872 22.0939 54.2292 20.8953 59.1923 20.8953C63.8923 20.8953 67.6899 21.9253 70.585 23.9853C72.9162 25.8954 74.6834 28.3487 75.8866 31.345C77.9922 27.7494 80.6054 25.1089 83.7262 23.4235C87.035 21.738 90.7197 20.8953 94.7805 20.8953C97.4877 20.8953 100.157 21.4197 102.789 22.4684C105.421 23.5171 107.809 25.3524 109.952 27.9741C111.681 30.109 112.847 32.7308 113.449 35.8395C113.825 37.8994 114.013 40.9145 114.013 44.8846L113.9 83.481H97.4312V44.4913C97.4312 42.1692 97.0553 40.259 96.3033 38.7609C94.8745 35.9144 92.2425 34.4911 88.4073 34.4911C83.9706 34.4911 80.9061 36.3264 79.2141 39.9969C78.3493 41.9445 77.917 44.2853 77.917 47.0195V83.481H61.7303V47.0195C61.7303 43.3864 61.3543 40.7459 60.6023 39.098Z" fill="#E7E9E4" fill-opacity="0.12"/>
</svg>
